<?xml version="1.0" encoding="utf-8"?>
<!-- Generator: Adobe Illustrator 19.2.1, SVG Export Plug-In . SVG Version: 6.00 Build 0)  -->
<svg version="1.1" id="layer" xmlns="http://www.w3.org/2000/svg" xmlns:xlink="http://www.w3.org/1999/xlink" x="0px" y="0px"
	 viewBox="0 0 652 652" style="enable-background:new 0 0 652 652;" xml:space="preserve">
<style type="text/css">
	.st0{fill:#D9282F;}
	.st1{fill:#FFFFFF;}
	.st2{fill:#3D3D3B;}
</style>
<g>
	<path class="st0" d="M530.7,279.6l-13.8-64.9c-4.2-19.8-23.7-35.8-43.5-35.8H140.9c-9.8,0-18.4,3.8-24.1,10.8
		c-5.8,7.2-7.8,16.7-5.7,26.8l13.8,64.9c4.2,19.7,23.7,35.8,43.5,35.8h332.5c9.8,0,18.4-3.9,24.1-10.8
		C530.8,299.2,532.8,289.7,530.7,279.6"/>
	<path class="st1" d="M192.9,277.4c-0.5,0.3-1.3,0.8-2.5,1.4c-1.1,0.6-2.5,1.2-4.2,1.7c-1.6,0.5-3.6,1-5.8,1.4
		c-2.2,0.4-4.6,0.6-7.2,0.6c-3.7,0-7.1-0.6-10.3-1.7c-3.2-1.1-6-2.8-8.4-5c-2.4-2.2-4.3-4.9-5.6-8c-1.4-3.2-2.1-6.8-2.1-11
		c0-3.9,0.7-7.5,2-10.7c1.3-3.2,3.2-6,5.6-8.3c2.4-2.3,5.2-4.1,8.4-5.4c3.2-1.3,6.8-1.9,10.7-1.9c3.4,0,6.4,0.4,9,1.3
		c2.6,0.9,4.8,2.1,6.6,3.5c1.8,1.5,3.1,3.2,4.1,5.2c0.9,2,1.4,4.1,1.4,6.3c0,2.3-0.4,4.4-1.3,6.2c-0.8,1.8-2.3,3.5-4.5,4.8
		c-2.1,1.4-5.1,2.4-8.7,3.1c-3.6,0.8-8.3,1.1-13.9,1.1c-1.3,0-2.6,0-3.7,0c-1.2,0-2.4-0.1-3.7-0.1c0.5,3.3,2.1,6,4.9,8.1
		c2.7,2.1,6.6,3.1,11.6,3.1c1.7,0,3.3-0.1,4.7-0.4c1.4-0.3,2.8-0.6,3.9-1c1.1-0.4,2.1-0.8,2.9-1.2c0.8-0.4,1.4-0.7,1.8-0.9
		L192.9,277.4z M158.4,254.2c1.5,0.1,3,0.1,4.3,0.1h4.2c3.6,0,6.5-0.2,8.7-0.7c2.2-0.5,3.9-1.1,5.2-1.8c1.2-0.7,2.1-1.5,2.5-2.5
		c0.4-0.9,0.6-1.9,0.6-2.9c0-2.5-1-4.3-3-5.6c-2-1.3-4.5-1.9-7.4-1.9c-2.4,0-4.6,0.4-6.4,1.3c-1.9,0.8-3.4,2-4.6,3.4
		c-1.2,1.4-2.2,3-2.9,4.9C158.9,250.4,158.5,252.3,158.4,254.2"/>
	<path class="st1" d="M201.1,237c0-1.8,0.5-3.2,1.6-4c1-0.8,2.5-1.2,4.4-1.2c1.2,0,2.3,0.1,3.3,0.4c1,0.3,1.6,0.5,2,0.6v25.8
		c0,4.4,1,7.8,3.1,10.1c2.1,2.3,5.3,3.5,9.6,3.5c4.3,0,7.5-1.2,9.6-3.5c2.1-2.3,3.1-5.7,3.1-10.1V237c0-1.8,0.5-3.2,1.6-4
		c1-0.8,2.5-1.2,4.3-1.2c1.2,0,2.4,0.1,3.3,0.4c1,0.3,1.6,0.5,2,0.6v28.3c0,3.3-0.6,6.3-1.7,9c-1.1,2.7-2.8,4.9-4.9,6.7
		c-2.1,1.8-4.7,3.2-7.6,4.2c-3,0.9-6.2,1.4-9.7,1.4c-3.5,0-6.8-0.5-9.7-1.4c-3-1-5.5-2.3-7.6-4.2c-2.1-1.8-3.7-4.1-4.9-6.7
		c-1.2-2.6-1.8-5.6-1.8-9V237z"/>
	<path class="st1" d="M257,249.4c0-6,1.8-10.7,5.5-14c3.7-3.3,8.8-5,15.4-5c4.1,0,7.5,0.6,10.1,1.7c2.6,1.1,3.9,2.9,3.9,5.3
		c0,1.1-0.3,2.2-0.9,3.2c-0.6,1.1-1.1,1.7-1.5,2c-1.1-0.5-2.5-1-4.1-1.5c-1.7-0.4-3.5-0.7-5.6-0.7c-7.7,0-11.5,4.1-11.5,12.2V281
		H257V249.4z"/>
	<path class="st1" d="M319.8,230.4c3.8,0,7.3,0.6,10.7,2c3.3,1.3,6.2,3.1,8.6,5.4c2.4,2.3,4.3,5.1,5.7,8.2c1.4,3.2,2.1,6.6,2.1,10.4
		c0,3.6-0.7,7.1-2.1,10.3c-1.4,3.2-3.3,5.9-5.7,8.2c-2.4,2.3-5.3,4.2-8.6,5.5c-3.3,1.3-6.8,2-10.7,2c-3.8,0-7.4-0.7-10.7-2
		c-3.3-1.3-6.2-3.2-8.6-5.5c-2.4-2.3-4.3-5.1-5.7-8.2c-1.4-3.2-2.1-6.6-2.1-10.3c0-3.7,0.7-7.2,2.1-10.4c1.4-3.2,3.3-5.9,5.7-8.2
		c2.4-2.3,5.3-4.2,8.6-5.4C312.4,231.1,316,230.4,319.8,230.4 M319.8,272.5c2.2,0,4.3-0.4,6.2-1.2c1.9-0.8,3.5-2,4.8-3.4
		c1.3-1.5,2.4-3.2,3.1-5.1c0.8-1.9,1.1-4,1.1-6.3c0-2.3-0.4-4.4-1.1-6.4c-0.7-2-1.8-3.7-3.1-5.2c-1.4-1.4-3-2.6-4.8-3.4
		c-1.9-0.8-4-1.2-6.2-1.2c-2.3,0-4.4,0.4-6.2,1.2c-1.9,0.8-3.5,2-4.8,3.4c-1.4,1.4-2.4,3.2-3.1,5.2c-0.7,2-1.1,4.1-1.1,6.4
		c0,2.3,0.4,4.4,1.1,6.3c0.8,1.9,1.8,3.6,3.1,5.1c1.3,1.5,2.9,2.6,4.8,3.4C315.4,272.1,317.5,272.5,319.8,272.5"/>
	<path class="st1" d="M397,277.5c-0.8,0.5-1.8,1.1-2.9,1.6c-1.1,0.6-2.5,1.1-3.9,1.6c-1.5,0.5-3.2,0.9-5,1.2c-1.9,0.3-4,0.5-6.3,0.5
		c-3.7,0-7.1-0.6-10.3-1.7c-3.2-1.1-6-2.8-8.4-5c-2.4-2.2-4.3-4.9-5.8-8.1c-1.4-3.2-2.1-6.9-2.1-11.1c0-4.2,0.7-7.9,2.1-11.2
		c1.4-3.3,3.3-6,5.7-8.2c2.4-2.2,5.3-3.9,8.6-5.1c3.3-1.2,6.9-1.7,10.7-1.7c3.2,0,5.9,0.3,8.2,0.8c2.3,0.5,4.1,1.2,5.5,2
		c1.4,0.8,2.4,1.7,3,2.7c0.6,1,1,2,1,2.9c0,1.3-0.5,2.5-1.4,3.6c-0.9,1.1-1.7,2-2.5,2.6c-1.2-1.1-2.9-2.2-5.1-3.2
		c-2.2-1-5-1.5-8.3-1.5c-2.2,0-4.3,0.3-6.2,1c-1.9,0.6-3.6,1.6-5,3c-1.4,1.3-2.5,3-3.3,5c-0.8,2-1.2,4.4-1.2,7.1
		c0,2.9,0.4,5.3,1.3,7.4c0.8,2,2,3.7,3.5,5c1.5,1.3,3.3,2.3,5.2,2.9c1.9,0.6,4.1,0.9,6.4,0.9c3.3,0,5.9-0.4,7.9-1.3
		c2-0.9,3.4-1.6,4.1-2L397,277.5z"/>
	<path class="st1" d="M445.1,277.4c-0.5,0.3-1.3,0.8-2.5,1.4c-1.1,0.6-2.5,1.2-4.2,1.7c-1.7,0.5-3.6,1-5.8,1.4
		c-2.2,0.4-4.6,0.6-7.2,0.6c-3.6,0-7.1-0.6-10.3-1.7c-3.2-1.1-6-2.8-8.3-5c-2.4-2.2-4.3-4.9-5.7-8c-1.4-3.2-2-6.8-2-11
		c0-3.9,0.7-7.5,2-10.7c1.4-3.2,3.2-6,5.6-8.3c2.4-2.3,5.2-4.1,8.4-5.4c3.2-1.3,6.8-1.9,10.7-1.9c3.4,0,6.4,0.4,9,1.3
		c2.6,0.9,4.8,2.1,6.6,3.5c1.8,1.5,3.2,3.2,4.1,5.2c0.9,2,1.3,4.1,1.3,6.3c0,2.3-0.4,4.4-1.3,6.2c-0.9,1.8-2.4,3.5-4.5,4.8
		c-2.2,1.4-5.1,2.4-8.7,3.1c-3.6,0.8-8.3,1.1-13.9,1.1c-1.3,0-2.5,0-3.7,0c-1.1,0-2.4-0.1-3.7-0.1c0.5,3.3,2.1,6,4.9,8.1
		c2.7,2.1,6.6,3.1,11.6,3.1c1.7,0,3.3-0.1,4.7-0.4c1.4-0.3,2.7-0.6,3.9-1c1.1-0.4,2.1-0.8,2.9-1.2c0.8-0.4,1.4-0.7,1.8-0.9
		L445.1,277.4z M410.7,254.2c1.5,0.1,3,0.1,4.3,0.1h4.1c3.6,0,6.5-0.2,8.7-0.7c2.2-0.5,4-1.1,5.2-1.8c1.2-0.7,2.1-1.5,2.5-2.5
		c0.4-0.9,0.6-1.9,0.6-2.9c0-2.5-1-4.3-3-5.6c-2-1.3-4.5-1.9-7.4-1.9c-2.4,0-4.5,0.4-6.4,1.3c-1.8,0.8-3.4,2-4.6,3.4
		c-1.2,1.4-2.2,3-2.9,4.9C411.1,250.4,410.8,252.3,410.7,254.2"/>
	<path class="st1" d="M453.8,213.9c0-1.8,0.5-3.1,1.6-3.9c1-0.9,2.5-1.3,4.4-1.3c1.2,0,2.3,0.1,3.2,0.4c1,0.3,1.6,0.5,2,0.6V281
		h-11.2V213.9z"/>
	<path class="st1" d="M475.5,213.9c0-1.8,0.5-3.1,1.6-3.9c1.1-0.9,2.5-1.3,4.4-1.3c1.2,0,2.2,0.1,3.2,0.4c1,0.3,1.6,0.5,2,0.6V281
		h-11.2V213.9z"/>
	<path class="st1" d="M507.5,301.8c-5.9,0-10.1-4.4-10.1-10.3c0-6.2,4.6-10.3,10.1-10.3c5.4,0,10.1,4.1,10.1,10.3
		C517.6,297.7,512.9,301.8,507.5,301.8 M507.5,283c-4.4,0-7.9,3.5-7.9,8.5c0,4.7,3,8.5,7.9,8.5c4.4,0,7.9-3.5,7.9-8.5
		C515.4,286.5,511.9,283,507.5,283 M505.5,297.4h-1.9V286h4.3c2.8,0,4.1,1,4.1,3.3c0,2.1-1.3,2.9-3,3.1l3.2,5h-2.1l-3-4.9h-1.7
		V297.4z M507.6,291c1.4,0,2.6-0.1,2.6-1.8c0-1.4-1.4-1.5-2.5-1.5h-2.2v3.3H507.6z"/>
	<path class="st2" d="M193.9,412.3c10.1,3.5,16.3,6.1,16.3,13.8c0,6-5.2,9.6-14,9.6c-7.7,0-13.9-3.4-19.4-10.7l-0.2-0.2l-3.6,3.3
		l0.1,0.2c6,8,13.5,11.9,23,11.9c10.8,0,18.6-5.9,18.6-14.1c0-10.1-6-13.8-19.6-18.3c-9.2-3.2-19-7.4-19-17.8
		c0-10.8,7.5-16.9,20.5-16.9c8,0,14.9,2,22.6,11.8l0.2,0.2l3.3-3l-0.1-0.2c-7.1-9.2-15.1-13.4-25.9-13.4c-15.4,0-25,8.2-25,21.4
		C171.8,404.6,184,408.9,193.9,412.3"/>
	<path class="st2" d="M200.2,401.6l-0.8-0.3c-8.8-3.1-15.2-5.4-15.2-12.5c0-5.8,4.2-8.9,12-8.9c7.2,0,12.6,2.9,18,9.8l0.2,0.2l3.3-3
		l-0.1-0.2c-5.9-8-12.3-11.4-21.3-11.4c-10.4,0-16.6,5-16.6,13.4c0,9.8,6.7,12.7,18.6,16.9c11.3,4,19.9,7.9,19.9,18.9
		c0,8.2-5.9,17.8-22.4,17.8c-10.4,0-18-3.8-24.7-12.3l-0.2-0.2l-3.3,3l0.2,0.2c7.8,9.5,16.4,13.8,27.9,13.8c16.1,0,27-9,27-22.3
		C222.6,409.6,211.2,405.6,200.2,401.6"/>
	<polygon class="st2" points="296.4,381.4 296.4,376.9 256.5,376.9 256.5,405.4 293,405.4 293,401 261.2,401 261.2,381.4 	"/>
	<polygon class="st2" points="253.9,374.5 296.4,374.5 296.4,370 249.3,370 249.3,445.6 298.6,445.6 298.6,441.1 253.9,441.1 	"/>
	<polygon class="st2" points="261.1,434.2 261.1,412.1 293,412.1 293,407.7 256.5,407.7 256.5,438.7 298.6,438.7 298.6,434.2 	"/>
	<polygon class="st2" points="338.4,434.2 338.4,370 333.8,370 333.8,438.7 376.7,438.7 376.7,434.2 	"/>
	<polygon class="st2" points="331.1,370 326.5,370 326.5,445.6 376.7,445.6 376.7,441.1 331.1,441.1 	"/>
	<polygon class="st2" points="408,374.5 450.5,374.5 450.5,370 403.4,370 403.4,445.6 452.7,445.6 452.7,441.1 408,441.1 	"/>
	<polygon class="st2" points="450.5,381.4 450.5,376.9 410.6,376.9 410.6,405.4 447.1,405.4 447.1,401 415.3,401 415.3,381.4 	"/>
	<polygon class="st2" points="415.3,434.2 415.3,412.1 447.1,412.1 447.1,407.7 410.6,407.7 410.6,438.7 452.7,438.7 452.7,434.2 	
		"/>
	<path class="st2" d="M510.4,379.9c8,0,14.4,3.3,19.1,9.7l0.2,0.2l3.6-3.2l-0.1-0.2c-6-7.7-12.8-11-22.7-11
		c-19,0-27.5,16.3-27.5,32.5c0,15.6,8.7,32.5,27.8,32.5c9.7,0,16-3.1,22.5-10.9l0.2-0.2l-3.6-3.4l-0.2,0.2
		c-5.3,6.9-10.9,9.7-19.1,9.7c-15.8,0-22.8-14-22.8-27.9C487.6,393.9,494.6,379.9,510.4,379.9"/>
	<path class="st2" d="M535.2,430.9l-0.2,0.2c-7,8.1-14.4,11.5-24.7,11.5c-15.2,0-30.5-10.7-30.5-34.6c0-17.3,9.4-34.9,30.3-34.9
		c11.1,0,17.3,2.9,24.9,11.6l0.2,0.2l3.4-3l-0.1-0.2c-6.7-8.7-16.2-13.1-28.3-13.1c-24.2,0-35,19.8-35,39.4
		c0,19.5,10.8,39.1,35,39.1c11.9,0,20.9-4.1,28.3-13l0.2-0.2L535.2,430.9z"/>
	<polygon class="st2" points="556.9,381.4 583,381.4 583,445.6 587.6,445.6 587.6,376.9 556.9,376.9 	"/>
	<rect x="556.9" y="370" class="st2" width="64" height="4.5"/>
	<polygon class="st2" points="590.2,445.6 594.8,445.6 594.8,381.4 620.9,381.4 620.9,376.9 590.2,376.9 	"/>
	<path class="st2" d="M76.6,413.5c-1,0-2,0.5-2.7,1.3l-4.1,4.1L59.1,408c-0.8-0.8-1.9-1.3-3.1-1.1h0c-1.5,0.2-2.7,1.2-3.2,2.5
		c-0.5,1.4-0.1,2.9,0.9,4l13.5,13.5c0.7,0.7,1.7,1.1,2.7,1.1s2-0.4,2.7-1.1l6.7-6.7c0.8-0.7,1.3-1.7,1.3-2.7c0-1-0.4-2.1-1.1-2.8
		C78.7,413.9,77.8,413.5,76.6,413.5"/>
	<path class="st2" d="M106.2,389.7c-0.7-1.5-2.3-2.3-3.9-2.1h0c-0.9,0.1-1.7,0.5-2.2,1.1L81.7,407c-0.8,0.7-1.2,1.7-1.3,2.7
		c0,1,0.4,2.1,1.1,2.8c0.7,0.7,1.7,1.1,2.7,1.1c0.1,0,0.1,0,0.1,0c1,0,2-0.5,2.7-1.3l18.3-18.3C106.6,393,106.9,391.2,106.2,389.7"
		/>
	<path class="st0" d="M79.7,466.6c-32.4,0-58.8-26.4-58.8-58.8s26.4-58.8,58.8-58.8c5.5,0,9.9,4.4,9.9,9.9s-4.4,9.9-9.9,9.9
		c-21.5,0-39,17.5-39,39c0,21.5,17.5,38.9,39,38.9c21.5,0,39-17.5,39-38.9c0-13.1-6.6-25.3-17.5-32.5c-4.6-3-5.8-9.2-2.8-13.7
		c3-4.6,9.2-5.8,13.7-2.8c16.5,10.9,26.4,29.3,26.4,49.1C138.4,440.2,112.1,466.6,79.7,466.6"/>
</g>
</svg>
