<?xml version="1.0" encoding="utf-8"?>
<!-- Generator: Adobe Illustrator 19.2.1, SVG Export Plug-In . SVG Version: 6.00 Build 0)  -->
<svg version="1.1" id="layer" xmlns="http://www.w3.org/2000/svg" xmlns:xlink="http://www.w3.org/1999/xlink" x="0px" y="0px"
	 viewBox="0 0 652 652" style="enable-background:new 0 0 652 652;" xml:space="preserve">
<style type="text/css">
	.st0{fill:#143981;}
	.st1{fill:#FFD600;}
</style>
<path class="st0" d="M178.9,233.7l-47.1,69.8l-47.1-69.8H21.8v174.6h62.8v-69.8l47.1,69.8l47.1-69.8v69.8h62.8V233.7H178.9z"/>
<path class="st1" d="M422.8,233.7h-71.1l-23.5,34.8l-23.7,35.1v-69.9h-62.8v174.5h62.8v-69.8l23.7,35.1l23.5,34.8h71.1L363.7,321
	L422.8,233.7z"/>
<path class="st0" d="M559,233.7l-47.1,69.8l-47.1-69.8h-42L402,264.3v113.2l20.8,30.6h42.1v-69.8l47.1,69.8l47.1-69.8v69.8h62.8
	V233.7H559z"/>
</svg>
