<?xml version="1.0" encoding="iso-8859-1"?>
<!-- Generator: Adobe Illustrator 19.0.1, SVG Export Plug-In . SVG Version: 6.00 Build 0)  -->
<svg version="1.1" xmlns="http://www.w3.org/2000/svg" xmlns:xlink="http://www.w3.org/1999/xlink" x="0px" y="0px"
	 viewBox="0 0 128 128" style="enable-background:new 0 0 128 128;" xml:space="preserve">
<g id="_x39_">
	<g id="pin_8_">
		<path style="fill:#539DD6;" d="M66.441,4.883c-25.941,0-46.971,21.03-46.971,46.971C19.47,95.71,64,126.498,64,126.498
			s46.971-32.875,46.971-78.306C110.971,22.251,92.383,4.883,66.441,4.883z M65.221,85.5c-20.604,0-37.307-16.703-37.307-37.308
			c0-20.603,16.703-37.307,37.307-37.307c20.604,0,37.306,16.704,37.306,37.307C102.527,68.797,85.824,85.5,65.221,85.5z"/>
		<path style="fill:#4692C1;" d="M64,126.498c0,0,46.971-32.875,46.971-78.306c0-25.941-19.485-44.454-46.971-43.247l0,7.161
			c20.604,0,36.086,15.483,36.086,36.087c0,20.604-15.482,36.087-36.086,36.087V126.498z"/>
		<circle style="fill:#BA8A8C;" cx="64" cy="48.193" r="36.006"/>
		<path style="fill:#1E1E1E;" d="M63.983,128l-0.706-0.517c-0.474-0.348-47.469-35.325-47.469-79.29C15.808,21.619,37.427,0,64,0
			s48.192,21.619,48.192,48.192c0,45.54-47.016,78.973-47.492,79.306L63.983,128z M64,2.441c-25.226,0-45.751,20.524-45.751,45.751
			c0,39.797,39.927,72.252,45.766,76.782c5.874-4.371,45.735-35.576,45.735-76.782C109.751,22.965,89.226,2.441,64,2.441z
			 M64,85.421c-20.527,0-37.227-16.7-37.227-37.229c0-20.527,16.7-37.227,37.227-37.227s37.227,16.7,37.227,37.227
			C101.227,68.72,84.527,85.421,64,85.421z M64,13.406c-19.181,0-34.786,15.605-34.786,34.786C29.214,67.374,44.819,82.98,64,82.98
			s34.786-15.606,34.786-34.788C98.786,29.011,83.181,13.406,64,13.406z"/>
	</g>
	<g id="icon_9_">
		<path style="fill:#FFC176;" d="M89.412,48.6h-7.016v19.145H72.99V55.481H57.451v12.265H48.04V48.6h-7.016
			c-0.883,0-1.091-0.504-0.457-1.128l23.5-23.017c0.634-0.618,1.668-0.618,2.302,0l23.506,23.017
			C90.509,48.096,90.301,48.6,89.412,48.6z"/>
		<path style="fill:#1E1E1E;" d="M90.728,46.6l-23.506-23.02c-1.106-1.078-2.904-1.076-4.01,0.002L39.71,46.602
			c-0.956,0.94-0.747,1.803-0.614,2.13s0.59,1.088,1.927,1.088h5.795v19.146h11.853V56.701h13.097v12.265h11.848V49.82h5.795
			c1.341,0,1.797-0.762,1.932-1.089C91.478,48.404,91.687,47.541,90.728,46.6z M74.21,66.525V54.26H56.231v12.265H49.26V49.115
			l15.96-15.516l15.955,15.516v17.41H74.21z M82.892,47.379L65.221,30.194L47.546,47.378l-5.134-0.004l22.508-22.045
			c0.157-0.156,0.437-0.157,0.597-0.002l22.51,22.052H82.892z"/>
	</g>
</g>
<g id="Layer_1">
</g>
</svg>
