<svg xmlns="http://www.w3.org/2000/svg" viewBox="0 0 83.73 82.11"><defs><style>.cls-1{fill:#231f20;}</style></defs><g id="Layer_2" data-name="Layer 2"><g id="Layer_1-2" data-name="Layer 1"><path class="cls-1" d="M31.59,57.3l-9.78-9.77a2.57,2.57,0,0,0-3.64,0L5.29,60.41a2.57,2.57,0,0,0,0,3.64l17.3,17.31a2.58,2.58,0,0,0,3.65,0L31.59,76a6.75,6.75,0,0,0,2-4.77V62.08A6.79,6.79,0,0,0,31.59,57.3Zm-4,14-2.44,2.6a1.34,1.34,0,0,1-1.92-.26L13,62.75a1.55,1.55,0,0,1-.25-2l5.88-6.25a1.33,1.33,0,0,1,1.91.26l5.78,6.15a5.06,5.06,0,0,1,1.36,2.8l.62,5.11A3.09,3.09,0,0,1,27.58,71.3Z"/><path class="cls-1" d="M32.3,17.65a5.42,5.42,0,0,1,.28-7.82,11.7,11.7,0,0,1,7.3-3.45,60.46,60.46,0,0,1,7.22.39c.95.06,1.83,0,2.13-1.1A1.73,1.73,0,0,0,48.1,3.54,33.2,33.2,0,0,0,36.58.11c-8.73-.76-15.82,2.42-21.3,9.22a6.53,6.53,0,0,0-1.57,2.44,9.8,9.8,0,0,1-4,5.93c-.81.64-1.46,1.14-2.62.6a2.39,2.39,0,0,0-1.94.53,46.55,46.55,0,0,0-3.73,3.3c-1.93,1.83-2,3.28-.09,5.18s4,4,6,5.93a3,3,0,0,0,4.43.22c1.11-.92,2.09-2,3.2-3s1.84-2.07,1.23-3.65a1.3,1.3,0,0,1,.14-.87,4.14,4.14,0,0,1,5.29-2,9.69,9.69,0,0,1,2.19,1.45c1.88,1.62,3.71,3.29,5.74,5.11l7.77-7.32C35.48,21.19,33.85,19.45,32.3,17.65Z"/><path class="cls-1" d="M82.05,67,39.17,25.79l-7.1,6.68,40.8,43.71a5.75,5.75,0,0,0,8.14,0l1-1A5.75,5.75,0,0,0,82.05,67Z"/><path class="cls-1" d="M61.44,43.68l1.23,0a1.39,1.39,0,0,0,1.12-.53l.08-.09.26-.31.08-.09a1.76,1.76,0,0,0,.36-1.29l-.4-3.81a1.4,1.4,0,0,1,1.26-1.49l3.48.1A1.41,1.41,0,0,0,70,35.69l.08-.1.25-.3.08-.09a1.71,1.71,0,0,0,.36-1.27l-.42-3.76a1.37,1.37,0,0,1,1.24-1.47l3.44.11a1.33,1.33,0,0,0,1.09-.5l.08-.09.25-.3.07-.09a1.59,1.59,0,0,0,.35-1.24l-.42-3.73a1.33,1.33,0,0,1,1.22-1.43l3.8-.2a1.28,1.28,0,0,0,.93-.47,4.7,4.7,0,0,1,.39-.57h0a1.23,1.23,0,0,0-.2-1.55L67.2,3.21a1.21,1.21,0,0,0-1.72,0L42.84,25.81Z"/><path class="cls-1" d="M32.3,36.34,24.61,44a1.52,1.52,0,0,0-.45,1v.07a1.67,1.67,0,0,0,.49,1.14l13.05,13h0v6.23a.66.66,0,0,0,.65.65l6.22,0h0a.41.41,0,0,0,.29-.16.38.38,0,0,0,.09-.25l0-5.1a1.5,1.5,0,0,1,1.33-1.56l3.61,0A1.46,1.46,0,0,0,51,58.57l.08-.1.27-.32.08-.1a1.7,1.7,0,0,0,.36-.81Z"/></g></g></svg>