<svg xmlns="http://www.w3.org/2000/svg" viewBox="0 0 77.92 89.81"><defs><style>.cls-1{fill:#231f20;}</style></defs><g id="Layer_2" data-name="Layer 2"><g id="Layer_1-2" data-name="Layer 1"><path class="cls-1" d="M65.09,27.82a6.1,6.1,0,0,1,5.52,6.29v.74a.66.66,0,0,0,.64.67h3.88a2.87,2.87,0,0,1,2.79,2.95v3.62A2.87,2.87,0,0,1,75.13,45H71.25a.66.66,0,0,0-.64.67V72a.66.66,0,0,0,.64.66h3.88a2.87,2.87,0,0,1,2.79,3v3.63a2.87,2.87,0,0,1-2.79,2.94H71.25a.66.66,0,0,0-.64.67v.29a6.11,6.11,0,0,1-5.52,6.29A6,6,0,0,1,59,83.35V33.93A6,6,0,0,1,65.09,27.82Z"/><path class="cls-1" d="M29.65,82.88v.29a6.12,6.12,0,0,0,5.53,6.29,6,6,0,0,0,6.09-6.11V33.93a6,6,0,0,0-6.09-6.11,6.11,6.11,0,0,0-5.53,6.29v.74"/><line class="cls-1" x1="29.65" y1="45.71" x2="29.65" y2="72.03"/><path class="cls-1" d="M38.22,1.76a4.45,4.45,0,0,0-.9-1A3.78,3.78,0,0,0,36.14.05a1.4,1.4,0,0,0-.54,0,1.89,1.89,0,0,0-.85.3c-1.2.74-1.07,2-.5,3a5.3,5.3,0,0,1,.44,4.55c-.06.13-.11.26-.18.39-.73,1.44-1.5,2.86-2.12,4.36a8.46,8.46,0,0,0-.59,2.11,6.92,6.92,0,0,0,0,2.83,7.84,7.84,0,0,0,.88,2.5,4.45,4.45,0,0,0,.72.9,3.68,3.68,0,0,0,.59.45,4.53,4.53,0,0,0,.64.36,1.69,1.69,0,0,0,1.29-.07l.26-.14c1.2-.73,1.07-2,.51-3A5.29,5.29,0,0,1,36.21,14l.18-.39c.74-1.43,1.5-2.86,2.12-4.35a8.58,8.58,0,0,0,.59-2.11,6.92,6.92,0,0,0,0-2.83A7.6,7.6,0,0,0,38.22,1.76Z"/><path class="cls-1" d="M54,4.43a7.7,7.7,0,0,0-.92-2.56,4.18,4.18,0,0,0-.9-1A3.62,3.62,0,0,0,51,.17a1.63,1.63,0,0,0-.54-.05,2.13,2.13,0,0,0-.86.31c-1.2.73-1.07,2-.5,3A5.26,5.26,0,0,1,49.56,8c-.05.13-.11.26-.17.39-.74,1.43-1.5,2.86-2.12,4.35a9.08,9.08,0,0,0-.6,2.11,6.75,6.75,0,0,0,0,2.83,7.53,7.53,0,0,0,.88,2.5,4.21,4.21,0,0,0,.71.9,3.24,3.24,0,0,0,.6.45,3.38,3.38,0,0,0,.64.36,1.65,1.65,0,0,0,1.29-.06l.26-.14c1.2-.74,1.07-2,.5-3a5.3,5.3,0,0,1-.44-4.55c.06-.13.11-.26.18-.39.73-1.44,1.5-2.86,2.12-4.36A8.46,8.46,0,0,0,54,7.26,6.92,6.92,0,0,0,54,4.43Z"/><path class="cls-1" d="M23.36,1.87a4.4,4.4,0,0,0-.9-1A3.78,3.78,0,0,0,21.28.17a1.63,1.63,0,0,0-.54-.05,2,2,0,0,0-.85.31c-1.2.73-1.07,2-.5,3A5.32,5.32,0,0,1,19.83,8c-.06.13-.11.26-.18.39-.73,1.43-1.5,2.86-2.12,4.35a8.58,8.58,0,0,0-.59,2.11,6.92,6.92,0,0,0,0,2.83,7.76,7.76,0,0,0,.88,2.5,4,4,0,0,0,.72.9,2.94,2.94,0,0,0,.6.45,3.09,3.09,0,0,0,.64.36A1.63,1.63,0,0,0,21,21.78l.27-.14c1.2-.74,1.07-2,.5-3a5.24,5.24,0,0,1-.44-4.55c.05-.13.11-.26.17-.39.74-1.44,1.5-2.86,2.12-4.36a8.94,8.94,0,0,0,.6-2.11,6.75,6.75,0,0,0,0-2.83A7.68,7.68,0,0,0,23.36,1.87Z"/><path class="cls-1" d="M44.4,83.11v.29a6.12,6.12,0,0,0,5.53,6.29A6,6,0,0,0,56,83.57V34.16a5.94,5.94,0,0,0-6.08-6.11,6.11,6.11,0,0,0-5.53,6.28v.75"/><path class="cls-1" d="M14.78,82.77v.29a6.11,6.11,0,0,0,5.52,6.29,6,6,0,0,0,6.09-6.12V33.82a5.94,5.94,0,0,0-6.09-6.11A6.1,6.1,0,0,0,14.78,34v.75"/><line class="cls-1" x1="14.78" y1="45.59" x2="14.78" y2="71.91"/><path class="cls-1" d="M29.53,83v.3a6.1,6.1,0,0,0,5.52,6.28,5.94,5.94,0,0,0,6.09-6.11V34.05a6,6,0,0,0-6.09-6.12,6.11,6.11,0,0,0-5.52,6.29V35"/><path class="cls-1" d="M14.88,83.11v.29a6.11,6.11,0,0,0,5.52,6.29,6,6,0,0,0,6.09-6.12V34.16a5.94,5.94,0,0,0-6.09-6.11,6.1,6.1,0,0,0-5.52,6.28v.75"/><line class="cls-1" x1="14.88" y1="45.93" x2="14.88" y2="72.25"/><path class="cls-1" d="M0,83v.3a6.1,6.1,0,0,0,5.52,6.28,5.94,5.94,0,0,0,6.09-6.11V34.05a6,6,0,0,0-6.09-6.12A6.11,6.11,0,0,0,0,34.22V35"/><line class="cls-1" y1="45.82" y2="72.14"/><path class="cls-1" d="M14.75,83.22v.29a6.11,6.11,0,0,0,5.52,6.29,6,6,0,0,0,6.09-6.11V34.27a5.94,5.94,0,0,0-6.09-6.11,6.1,6.1,0,0,0-5.52,6.29v.74"/></g></g></svg>