<svg xmlns="http://www.w3.org/2000/svg" viewBox="0 0 75.33 83.23"><defs><style>.cls-1{fill:#231f20;}</style></defs><g id="Layer_2" data-name="Layer 2"><g id="Layer_1-2" data-name="Layer 1"><path class="cls-1" d="M73.55,18.12,48,.78a4.63,4.63,0,0,0-6.11.86L28.42,18.52a3.84,3.84,0,0,0,.93,5.64L54.89,41.49A4.62,4.62,0,0,0,61,40.63L74.48,23.75A3.82,3.82,0,0,0,73.55,18.12Zm-.17,3c-2.06,2.73-4.11,5.47-6.2,8.2a1.38,1.38,0,0,1-1.8.54,1.33,1.33,0,0,1-.66-1.73c.32-1.27.59-2.52.88-3.78a2.8,2.8,0,0,0,.07-.76c-.1-2-1.11-2.86-3.25-1.55a20.61,20.61,0,0,0-5,4.5c-1.5,1.77-2.91,3.62-4.35,5.42l-.34.41a2.09,2.09,0,0,1-.22.2,2.39,2.39,0,0,1-3.2-.15,7,7,0,0,1-1.59-2.81,14.28,14.28,0,0,1-.12-8.29c1-3.46,1.66-7,2.32-10.53a7.58,7.58,0,0,0-.11-3.18c-.38-1.48-1.33-1.85-2.72-1-1.64,1-3.17,2.13-4.71,3.24-.68.49-1.28,1.08-1.93,1.62a1.45,1.45,0,0,1-2,.12,1.29,1.29,0,0,1,0-1.88L44.72,1.8h0v0a.56.56,0,0,1,.74-.12L73.26,20.48A.46.46,0,0,1,73.38,21.15Z"/><path class="cls-1" d="M53.71,45,26.08,26.24a3,3,0,0,0-4,.23L17.9,31.7c-2.18,2.74-1.07,6.91,2.48,9.32l.5.34c3.05,2.07,3.94,5.68,2,8L.79,74.66C-.75,76.6,0,79.56,2.55,81.27l1.17.79c2.52,1.71,5.81,1.53,7.36-.42L31.32,55c1.8-2.36,5.76-2.63,8.78-.58h0c3.55,2.41,8.2,2.15,10.39-.59l4.17-5.23C55.5,47.53,55.08,45.92,53.71,45ZM10.42,77.88a3.69,3.69,0,0,1-4,.55,3.08,3.08,0,0,1-.86-5.18,3.69,3.69,0,0,1,4-.55A3.08,3.08,0,0,1,10.42,77.88Zm41.8-29.25-1.7,2.13a2.2,2.2,0,0,1-2.91.41l-26-17.68a1.82,1.82,0,0,1-.44-2.68l1.7-2.13a2.2,2.2,0,0,1,2.9-.41L51.77,46A1.82,1.82,0,0,1,52.22,48.63Z"/></g></g></svg>