<svg xmlns="http://www.w3.org/2000/svg" viewBox="0 0 75.75 81.96"><defs><style>.cls-1{fill:#231f20;}</style></defs><g id="Layer_2" data-name="Layer 2"><g id="Layer_1-2" data-name="Layer 1"><rect class="cls-1" width="30.22" height="8.28" rx="2.27"/><rect class="cls-1" x="67.47" y="51.74" width="8.28" height="30.22" rx="2.27"/><path class="cls-1" d="M62.92,55.88H43a2.23,2.23,0,0,0-1.56.63L24,73.13a1.06,1.06,0,0,0,.26,1.72A20.25,20.25,0,0,0,32.7,77H62.92a1.65,1.65,0,0,0,1.65-1.65V57.53A1.65,1.65,0,0,0,62.92,55.88Z"/><path class="cls-1" d="M25.66,38.38V12.83A1.65,1.65,0,0,0,24,11.18H5.79a1.65,1.65,0,0,0-1.65,1.65V50.91a17.61,17.61,0,0,0,1.08,5.82A1.06,1.06,0,0,0,7,57.16L25,40A2.28,2.28,0,0,0,25.66,38.38Z"/><path class="cls-1" d="M73.67,18.12a.76.76,0,0,0-1.26-.29L60.47,29.77a1,1,0,0,1-1,.26L53,28a1,1,0,0,1-.68-.68l-2-6.44a1,1,0,0,1,.26-1.06L62.68,7.68a.75.75,0,0,0-.27-1.24A18.2,18.2,0,0,0,39,29.2a1.67,1.67,0,0,1-.41,1.69L7.22,62.23A8.23,8.23,0,0,0,18.86,73.86l32-32a1.6,1.6,0,0,1,1.51-.45A18.22,18.22,0,0,0,74.45,25,18.09,18.09,0,0,0,73.67,18.12ZM17.75,67.69a3.73,3.73,0,1,1-4.31-4.3A3.73,3.73,0,0,1,17.75,67.69Z"/></g></g></svg>