<svg xmlns="http://www.w3.org/2000/svg" xmlns:xlink="http://www.w3.org/1999/xlink" viewBox="0 0 229.17 220.25"><defs><style>.cls-1{fill:url(#linear-gradient);}.cls-2{fill:url(#linear-gradient-2);}.cls-3{fill:url(#linear-gradient-3);}</style><linearGradient id="linear-gradient" x1="114.59" y1="220.25" x2="114.59" gradientUnits="userSpaceOnUse"><stop offset="0.56" stop-color="#d3ac0d"/><stop offset="0.81" stop-color="#eddd9a"/><stop offset="1" stop-color="#fff"/></linearGradient><linearGradient id="linear-gradient-2" x1="89.64" y1="104.54" x2="89.64" y2="64.16" gradientUnits="userSpaceOnUse"><stop offset="0.62" stop-color="#d3ac0d"/><stop offset="0.67" stop-color="#d7b321"/><stop offset="0.9" stop-color="#e5cd6c"/><stop offset="1" stop-color="#ead78a"/></linearGradient><linearGradient id="linear-gradient-3" x1="39.3" y1="62.35" x2="39.3" y2="36.63" gradientUnits="userSpaceOnUse"><stop offset="0" stop-color="#e4cd6c"/><stop offset="0.41" stop-color="#ead88d"/><stop offset="1" stop-color="#f2e7b8"/></linearGradient></defs><g id="Layer_2" data-name="Layer 2"><g id="Layer_10" data-name="Layer 10"><path class="cls-1" d="M169.1,163.5,210,162.39l-40.89-1.11,1-65.34,30.69,16.88-30.65-19,.34-21.53,58.63,31.65L147,54.81,146.48,0l-1.34,53.68L100.56,26.91,0,86.5v27L100.56,57.66l43.88,24.13-2,78.76-41.92-1.14V118.73H50.35V92.37L28.52,104.64v35.92H78.73v28.38H50.35V154.75H28.52v36h72l66.8-2.14.85,31.62.5-31.67,60.46-1.94-60.41-1.14ZM141.87,185l-41.31-.78V165.37l41.82-1.14Zm2.67-107.17-44-27.33v-16l44.46,24Zm2.55-18.24,17,9.19.59,21.58L147.29,79.54Zm.24,23.79L164.78,93l1.84,68.23-18.51-.51Zm1,101.74-.22-21.05,18.54-.5.59,21.91Z"/><polygon class="cls-2" points="78.73 76.42 78.73 104.54 100.56 104.54 100.56 64.16 78.73 76.42"/><polygon class="cls-3" points="50.22 36.63 28.39 36.63 28.39 62.35 50.22 50.56 50.22 36.63"/></g></g></svg>