<svg xmlns="http://www.w3.org/2000/svg" xmlns:xlink="http://www.w3.org/1999/xlink" viewBox="0 0 723.83 351.07"><defs><style>.cls-1{isolation:isolate;}.cls-2{fill:#d3ac0d;}.cls-3{fill:url(#linear-gradient);}.cls-4{fill:url(#linear-gradient-2);}.cls-5{fill:url(#linear-gradient-3);}</style><linearGradient id="linear-gradient" x1="361.99" y1="220.25" x2="361.99" gradientUnits="userSpaceOnUse"><stop offset="0.56" stop-color="#d3ac0d"/><stop offset="0.81" stop-color="#eddd9a"/><stop offset="1" stop-color="#fff"/></linearGradient><linearGradient id="linear-gradient-2" x1="337.04" y1="104.54" x2="337.04" y2="64.16" gradientUnits="userSpaceOnUse"><stop offset="0.62" stop-color="#d3ac0d"/><stop offset="0.67" stop-color="#d7b321"/><stop offset="0.9" stop-color="#e5cd6c"/><stop offset="1" stop-color="#ead78a"/></linearGradient><linearGradient id="linear-gradient-3" x1="286.7" y1="62.35" x2="286.7" y2="36.63" gradientUnits="userSpaceOnUse"><stop offset="0" stop-color="#e4cd6c"/><stop offset="0.41" stop-color="#ead88d"/><stop offset="1" stop-color="#f2e7b8"/></linearGradient></defs><g id="Layer_2" data-name="Layer 2"><g id="Layer_1-2" data-name="Layer 1"><g class="cls-1"><path class="cls-2" d="M594.15,241.28c-1.66,2.64-5,7.91-8.22,12.94S579.58,264,577,268.89a79,79,0,0,0-5.46,12.71c-.89,2.93-.64,3.87-.27,4.8a7.36,7.36,0,0,0,1.64,2.63,3.5,3.5,0,0,0,2.59,1.21c.81-.11,1.4-.91,2.33-2.24s2.22-3.21,4.49-6.81,5.53-8.92,9-14.36,7.09-11,9.12-14.21,2.44-4,2.63-4.93a6,6,0,0,0-.25-3.18,13.92,13.92,0,0,0-2-3.65,5.68,5.68,0,0,0-2.42-2.07,4.85,4.85,0,0,0-2.17-.19C595.82,238.65,595.82,238.65,594.15,241.28Z"/><path class="cls-2" d="M574.81,294.51a19.7,19.7,0,0,0-3.14-3.81,4.74,4.74,0,0,0-2.89-1.57c-.81,0-1.5.48-2.68,2.64s-2.85,6-4.48,9.5-3.22,6.7-4.64,10a90.6,90.6,0,0,0-3.6,9.91,50.28,50.28,0,0,0-1.89,8.6,8.22,8.22,0,0,0,.59,4.84,8,8,0,0,0,2.29,2.67,2.56,2.56,0,0,0,1.65.64,1.64,1.64,0,0,0,1.29-.76,30.66,30.66,0,0,0,2.57-4.62c1.52-3,4-8,6.13-12.59s4-8.77,5.46-12,2.58-5.49,3.19-7.16a11.62,11.62,0,0,0,.76-3.62A3.89,3.89,0,0,0,574.81,294.51Z"/><path class="cls-2" d="M617.92,271.69a8.76,8.76,0,0,1-.42,1.41,26.9,26.9,0,0,1-1.19,3.24c-1.17,2.59-3.21,6.47-5.29,10.29s-4.24,7.57-6.26,10.75a87.55,87.55,0,0,1-6.12,8.49,97.91,97.91,0,0,1-7.06,7.71,47.32,47.32,0,0,1-5.58,4.7c-1.44,1-2.39,1.47-2.83,1.3s-.36-1.44-.16-2.79a51.23,51.23,0,0,1,1.16-6c.29-1,.78-2.4,1.51-4.83s1.08-3.42,1.75-5.13,1.16-2.77,2.16-4.86,2.68-3.33,3.89-4.6,2.08-2.08,5-4.82a98.85,98.85,0,0,1,9-7.63c3.46-2.59,5.88-4.33,7.78-5.52A26.16,26.16,0,0,1,617.92,271.69Zm1-12.25a10.62,10.62,0,0,0-2.67.32,27.71,27.71,0,0,0-5.21,1.88,48.53,48.53,0,0,0-5.45,3.06c-1.54,1-2.64,1.83-3.7,2.65a12.84,12.84,0,0,1-2.87,1.9,2.38,2.38,0,0,1-1.85-.26,4.5,4.5,0,0,0-2.18-.27,5.51,5.51,0,0,0-2.94,1.35,20.06,20.06,0,0,0-3.33,4c-1.16,1.74-2.41,3.8-3.75,6.14s-2.75,5-4.06,7.35-2.51,4.56-3.43,6.66a45.61,45.61,0,0,0-2.05,5.85c-.5,1.73-.84,3.15-1.24,4.91a47.44,47.44,0,0,0-1.08,6.35,22.71,22.71,0,0,0,.48,7.94,15.61,15.61,0,0,0,3.77,6.47,18.13,18.13,0,0,0,5,3.69,7.21,7.21,0,0,0,4.15.86,15.06,15.06,0,0,0,5.54-1.69,32.44,32.44,0,0,0,7.08-5.14,74.83,74.83,0,0,0,8.23-9.11c2.88-3.71,5.86-8.06,8.19-11.7a110,110,0,0,0,5.58-9.7,103.62,103.62,0,0,0,4.29-9.44,47,47,0,0,0,2.41-7.9,14.41,14.41,0,0,0,.19-5.45,14.57,14.57,0,0,0-1.62-4.5,18.84,18.84,0,0,0-2.45-3.42,11.67,11.67,0,0,0-2.19-2,4.69,4.69,0,0,0-2.13-.79Z"/><path class="cls-2" d="M349.32,274.13c.88,0,1,.63,1,1.79a22.51,22.51,0,0,1-.78,5.66,65.6,65.6,0,0,1-3.21,9.2,82.33,82.33,0,0,1-4.9,9.75,114,114,0,0,1-6.48,9.67,49,49,0,0,1-7.06,8.08,16,16,0,0,1-6.45,3.62c-1.45.25-1.83-.51-2.1-1.79a24.14,24.14,0,0,1-.37-5.4,41.82,41.82,0,0,1,1-7.91,44.27,44.27,0,0,1,2.49-7.73,24.71,24.71,0,0,1,2.67-4.54,61,61,0,0,1,4.23-5.75,68.58,68.58,0,0,1,14.41-12.29,15.92,15.92,0,0,1,5.38-2.35ZM307.48,234a19.66,19.66,0,0,0-2.34.17,11.77,11.77,0,0,0-4.44,1.55,43.11,43.11,0,0,0-6.45,4.47,54.25,54.25,0,0,0-7,7,89.17,89.17,0,0,0-7,9.63c-2.32,3.66-4.66,7.77-6.85,12.13s-4.25,9-6,13.45-3.31,8.71-4.61,12.93-2.38,8.37-3.21,12a93.19,93.19,0,0,0-1.75,9.64,61.82,61.82,0,0,0-.39,7.67,34.74,34.74,0,0,0,.59,7.07,23.15,23.15,0,0,0,2.54,6.91,12.79,12.79,0,0,0,4.3,4.35,21.32,21.32,0,0,0,6,2.68,15.14,15.14,0,0,0,6,.29,19,19,0,0,0,6.16-2.07,48.7,48.7,0,0,0,7.43-5,101.13,101.13,0,0,0,8.67-7.72c3.15-3.12,6.6-6.86,8.38-8.81s1.9-2.13,2.11-1.64a16.65,16.65,0,0,0,1.2,2.81,13,13,0,0,0,3.31,3.58,30,30,0,0,0,5.3,3.23,14.28,14.28,0,0,0,4.8,1.45,12.66,12.66,0,0,0,5.09-.4,14.38,14.38,0,0,0,5.26-3.16,58.24,58.24,0,0,0,6.78-7.05,91.83,91.83,0,0,0,6.57-9.21c1.95-3.1,3.58-6.07,4.71-8.21,1-1.82,1.55-3.05,1.66-3.13h0a.18.18,0,0,1,0,.06c-.08.39-.86,2.49-1.86,5S350.21,311,349,314s-2.44,5.95-3.24,8.13a23.81,23.81,0,0,0-1.33,4.59,4.05,4.05,0,0,0,.42,2.73,6.68,6.68,0,0,0,2.55,2.3,14.19,14.19,0,0,0,4,1.52,5,5,0,0,0,3-.14,3.36,3.36,0,0,0,1.71-1.85c.39-.87.64-2,1.6-4.79s2.64-7.24,4.35-11.5,3.45-8.33,4.81-11.42,2.32-5.2,3.34-7.42,2.08-4.52,2.7-5.94a5.23,5.23,0,0,1,.58-1.22h0a5.3,5.3,0,0,1-.13,1.48c-.29,2.2-1,7.1-1.58,11.45s-.89,8.16-1.11,11.62-.32,6.57-.3,9.24a42,42,0,0,0,.44,6.55,7,7,0,0,0,1.56,3.65,10.36,10.36,0,0,0,3.44,2.46,15.15,15.15,0,0,0,4.11,1.24,3.7,3.7,0,0,0,4.62-2.71c.56-1.29,1.17-3.21,2.18-6.41s2.4-7.68,4.37-13.14,4.53-11.86,6.71-17.11,4-9.35,5.91-13.67,4-8.85,5.79-12.37,3.27-6,4.31-7.73a35.52,35.52,0,0,0,1.92-3.37,4.77,4.77,0,0,0,.39-2,3.44,3.44,0,0,0-.53-1.82,7.18,7.18,0,0,0-1.84-1.86,10.16,10.16,0,0,0-2.46-1.3,10.7,10.7,0,0,0-2.55-.64,4.44,4.44,0,0,0-1.91.17,4.12,4.12,0,0,0-1.59,1,17,17,0,0,0-2.57,3.36,104.27,104.27,0,0,0-5.7,9.87c-2.26,4.41-4.68,9.85-6.46,13.89a94.68,94.68,0,0,0-3.8,9.54c-.91,2.89-1.62,6-1.89,6.54a.19.19,0,0,1-.07.08h0a18.09,18.09,0,0,1,.21-4c.23-2.28.53-4.71.76-6.89s.4-4.1.69-6.31.68-4.69.86-6.35a9.69,9.69,0,0,0,0-3.28,5.55,5.55,0,0,0-1-2.24,11.3,11.3,0,0,0-2.25-2.14,18.19,18.19,0,0,0-2.72-1.72,10.52,10.52,0,0,0-2.23-.89,4.72,4.72,0,0,0-2.21-.14,6.08,6.08,0,0,0-3.09,1.67,27.55,27.55,0,0,0-4.34,6c-1.88,3.14-4.34,7.67-6.23,11.33s-3.21,6.48-4.1,8.33a10.31,10.31,0,0,1-1.08,2h0a1.94,1.94,0,0,1,.13-.72c.39-1.44,1.64-5.23,2.35-7.94a19.34,19.34,0,0,0,.86-5.92,11.77,11.77,0,0,0-1-4.45,15.75,15.75,0,0,0-6.78-7.13,14,14,0,0,0-4.85-1.51,19,19,0,0,0-5.65.08,12.81,12.81,0,0,0-4.38,1.69,31.91,31.91,0,0,1-4.59,2.5c-1.72.67-3.66,1-5.38,1.66a13.56,13.56,0,0,0-4.83,3.4,43.87,43.87,0,0,0-5.57,7.67c-2.32,3.79-5.3,9.13-7.25,13.15s-2.84,6.73-4.42,9.48A51.67,51.67,0,0,1,299.9,313c-2.89,3.19-6.43,6.76-9.9,10s-6.86,6.15-9.61,8.34a58.68,58.68,0,0,1-6.34,4.54c-1.53.9-2.5,1.25-3.24.81s-1.27-1.64-1.51-4.12a49.69,49.69,0,0,1,.36-10.68,133.44,133.44,0,0,1,2.86-14.39c1.18-4.77,2.43-9.14,4.08-13.89a149.31,149.31,0,0,1,6.07-14.9,137.07,137.07,0,0,1,7.71-14.08,84.51,84.51,0,0,1,7.89-10.72,59.6,59.6,0,0,1,7.87-7.57c2.38-1.84,4.32-2.85,5.36-2.92s1.18.8,1.23,2.12a26.47,26.47,0,0,1-.41,5.62,71.46,71.46,0,0,1-2.15,8.63,58.64,58.64,0,0,1-2.92,7.48c-1.09,2.34-2.34,4.69-3,5.87a13.41,13.41,0,0,1-1,1.78,28.14,28.14,0,0,1-2.31,3,46.52,46.52,0,0,1-3.4,3.29,9,9,0,0,0-1.94,2.09,2.27,2.27,0,0,0-.14,1.79,3.85,3.85,0,0,0,1.4,1.68,22.31,22.31,0,0,0,3.37,2.17,9.22,9.22,0,0,0,3.34,1.1,6.48,6.48,0,0,0,3.09-.38,7.45,7.45,0,0,0,2.72-2.14,44.94,44.94,0,0,0,3.69-4.76c1.37-2,2.81-4.32,4-6.52a56.44,56.44,0,0,0,3.11-6.72,64,64,0,0,0,2.42-7.59,40.18,40.18,0,0,0,.87-12.67,22.2,22.2,0,0,0-1.26-5.44A12.57,12.57,0,0,0,320,240a18.34,18.34,0,0,0-3.2-3,17,17,0,0,0-3.42-1.93,12.25,12.25,0,0,0-3.61-.93A21.07,21.07,0,0,0,307.48,234Z"/><path class="cls-2" d="M482.45,277.58a.38.38,0,0,1,.43.41c0,.72-.69,2.42-1.86,4.85s-2.76,5.58-3.95,8.24-2,4.82-2.38,5.89-.39,1.09-.54,1-.44-.38-1-.93a24.06,24.06,0,0,0-2.25-2,9.73,9.73,0,0,0-2.46-1.35,2.18,2.18,0,0,0-1.66-.11A5.45,5.45,0,0,0,465,295c-.8.84-1.89,2.11-3.62,3.79s-4.11,3.76-6.81,6.17-5.72,5.15-7.76,7-3.1,2.92-3.24,2.32.61-2.84,1.52-5.29,2-5.1,3.27-8.22,2.91-6.72,4-8.86a10.09,10.09,0,0,1,2.16-3.35,12.11,12.11,0,0,1,3.57-1.94c2.27-1,6.11-2.51,10.23-4.08s8.52-3.17,11.14-4.11A11.92,11.92,0,0,1,482.45,277.58Zm25.33-6.32c.2,0,.32,0,.35.14.11.41-1.33,1.76-3.26,3.54s-4.36,4-6.57,5.84-4.22,3.3-5.22,4a7.89,7.89,0,0,1-1,.71h0a.46.46,0,0,1-.13-.22,1.7,1.7,0,0,1,0-.66,9,9,0,0,1,.66-2.18,33.46,33.46,0,0,1,2.33-4.63,7.5,7.5,0,0,1,3.28-2.87,63.4,63.4,0,0,1,6.14-2.66,14.88,14.88,0,0,1,3.45-1Zm-53.86-7c.3,0-.4,1.28-1.33,2.85s-2.27,3.72-3.47,5.87-2.3,4.41-3.1,5.81a6.11,6.11,0,0,1-2.13,2.47,19.15,19.15,0,0,1-2.88,1.58c-.82.35-1.27.42-1.58.31a.61.61,0,0,1-.4-.68,1.32,1.32,0,0,1,.44-.63l.13-.12c1.32-1.86,2.63-3.73,4.33-5.93s3.78-4.76,5.71-7a35.55,35.55,0,0,1,4.19-4.48Zm34.67-.27c1.17,0,1.23.25,1.22.55a3.34,3.34,0,0,1-.35,1.32,14.08,14.08,0,0,1-1.61,2.67c-.83,1.11-2,2.43-2.93,3.57a15.54,15.54,0,0,1-2.17,2.43c-.51.32-.81,0-1.24-.43a8.58,8.58,0,0,0-1.54-1.31,3.47,3.47,0,0,0-2-.5,22,22,0,0,0-3.68.49c-1.84.34-4.5.87-6.94,1.41a40.61,40.61,0,0,1-5.57,1.1c-.91,0-.51-.59,0-1.39l1.55-2.33c.34-.51.33-.51.64-1s.91-1.45,1.39-2.12a5.86,5.86,0,0,1,1.26-1.36,4.57,4.57,0,0,1,2-.84c1.05-.24,2.64-.44,5.1-.77s5.8-.81,8.59-1.11A52.57,52.57,0,0,1,488.59,264Zm76.2-22.52a11,11,0,0,0-2.81.35,21.88,21.88,0,0,0-4.4,1.62,56.29,56.29,0,0,0-6,3.41c-2.16,1.38-4.37,2.94-6.36,4.48s-3.77,3-5.47,4.55-3.33,3-4.69,4.36-2.46,2.71-3.49,3.94-2,2.4-2.8,3.46a29.08,29.08,0,0,0-1.91,2.9,21.54,21.54,0,0,0-1.24,2.51,11.69,11.69,0,0,0-.77,2.53,9.23,9.23,0,0,0,0,2.63,12.89,12.89,0,0,0,.65,3,13.23,13.23,0,0,0,1.65,3,25.54,25.54,0,0,0,2.7,3.17,13.73,13.73,0,0,0,3,2.21,17.9,17.9,0,0,0,3.91,1.66,25.44,25.44,0,0,0,5,.79c2,.17,4.56.28,6.37.35a20.35,20.35,0,0,1,3.47.23c.54.17.53.49.33,1.08a11.87,11.87,0,0,1-1.46,2.71c-.86,1.26-2.19,2.93-3.45,4.41a52.62,52.62,0,0,1-4,4.28c-1.59,1.51-3.57,3.24-5.52,4.79s-3.87,3-5.82,4.26a19.48,19.48,0,0,1-3.26,1.95h0s.07-.12.21-.26c.87-.86,4.59-3.77,7.17-5.84s4-3.31,5-4.21a7.45,7.45,0,0,0,1.76-2,3.46,3.46,0,0,0,.32-1.78,6.25,6.25,0,0,0-.4-2,5.54,5.54,0,0,0-1.28-1.81,25.08,25.08,0,0,0-1.93-1.72,2.08,2.08,0,0,0-1.24-.63,5.83,5.83,0,0,0-2,.24,10.73,10.73,0,0,0-2.08,1c-.7.39-1.46.82-2,1.05a1.44,1.44,0,0,1-1.27.08,5.66,5.66,0,0,1-1.53-1,16.12,16.12,0,0,1-1.13-1.27,9.72,9.72,0,0,0-1.13-1c-.33-.24-.56-.35-2.18-.34s-4.66.16-7.64.22-5.93,0-7.81.16a28.54,28.54,0,0,0-4.11.78c-1.38.26-3.3.43-4.83.72s-2.67.71-2.13.09,2.75-2.27,5-4.06,4.5-3.7,6.86-5.79,4.79-4.35,6.84-6.33,3.69-3.69,4.82-5a14.59,14.59,0,0,0,2.2-3.2,9.53,9.53,0,0,0,.87-2.51,5.34,5.34,0,0,0,0-2.07,6.52,6.52,0,0,0-.9-2,21.21,21.21,0,0,0-2-2.73,14.33,14.33,0,0,0-2.72-2.51,10.25,10.25,0,0,0-3.08-1.41,11.66,11.66,0,0,0-3.43-.38,28.09,28.09,0,0,0-4.57.43A25,25,0,0,0,504,260c-1.13.42-1.95.85-2.82,1.12a6.24,6.24,0,0,1-2.54.29,3.66,3.66,0,0,1-1.79-.86,4.88,4.88,0,0,0-1.58-1.06,4,4,0,0,0-2,.17,6,6,0,0,1-2,.39c-.54-.08-.89-.5-1.52-1.11a22.57,22.57,0,0,0-2.36-2.05,7.16,7.16,0,0,0-2.78-1.32,19.23,19.23,0,0,0-4.42-.34c-1.86,0-4.15.19-6.16.41s-3.72.51-5.8.7-4.51.28-6.12.51a22.88,22.88,0,0,0-3.41.82,12.77,12.77,0,0,1-3.3.38,7.17,7.17,0,0,1-2.73-.67c-.9-.39-1.91-.93-2.71-1.24a4.71,4.71,0,0,0-2.05-.37,4.32,4.32,0,0,0-2.72,1.29,50.86,50.86,0,0,0-6.49,6.93c-3.07,3.72-7.17,9.1-10.77,14.15s-6.73,9.76-9,13.3-3.61,5.74-3.85,5.63l0,0c-.17-.27.9-3.19,2.06-6.24s2.41-6.24,3.7-9.45,2.6-6.43,3.78-8.9a45.54,45.54,0,0,0,2.65-5.68,5.35,5.35,0,0,0-.38-4.11,8.61,8.61,0,0,0-2.82-3,5.72,5.72,0,0,0-3.15-1c-1,0-2,.28-3.29,1.93a45.52,45.52,0,0,0-4.08,7.42c-1.29,2.75-2.33,5.25-3.22,7.36h0c-.89,2.12-1.63,3.85-2.26,5.38s-1.18,2.87-2.18,5.66-2.48,7-3.84,11.56-2.61,9.33-3.54,13.43-1.55,7.48-1.87,9.85a19.73,19.73,0,0,0-.25,4.69,3.41,3.41,0,0,0,1,2.2,12.28,12.28,0,0,0,2.78,2,16.38,16.38,0,0,0,3.85,1.56,6.26,6.26,0,0,0,3.16,0,3.83,3.83,0,0,0,2-1.49,33.15,33.15,0,0,0,2.27-3.68c1-1.71,2.2-4,3.75-6.68s3.41-5.85,5.31-8.76,3.82-5.55,5.72-8.38,3.74-5.83,5-7.94,2-3.31,2.38-4,.48-.8,1-.45a14.25,14.25,0,0,1,2.18,1.81,3.39,3.39,0,0,1,1,1.55,3.16,3.16,0,0,1-.32,2c-.4,1.11-1.18,2.9-2,4.77s-1.55,3.82-2.22,5.85a58.61,58.61,0,0,0-1.64,6.07,45.57,45.57,0,0,0-.81,5.18,14.17,14.17,0,0,0,0,3.77,4.87,4.87,0,0,0,1.76,2.9,36,36,0,0,0,4.58,3.44,11.17,11.17,0,0,0,3.58,1.71,5.63,5.63,0,0,0,3.33-.29,20.71,20.71,0,0,0,4.66-2.63c1.76-1.26,3.7-2.9,5.82-4.74s4.42-3.91,6.72-6,4.57-4.24,6.19-5.86,2.58-2.71,2.72-2.53-.55,1.64-1.33,3.44-1.67,3.92-2.47,6-1.5,4.16-2.05,5.88a26.76,26.76,0,0,0-1.06,4.17,4.91,4.91,0,0,0,.29,2.75,6.51,6.51,0,0,0,2.3,2.57,27.54,27.54,0,0,0,4.74,2.82,4.14,4.14,0,0,0,2.84.46,1.45,1.45,0,0,0,1.07-1.09,6.47,6.47,0,0,0,0-1.87,7.19,7.19,0,0,1,.35-2.66c.38-1.47,1.15-3.86,2.28-7s2.59-7.06,3.47-9.51,1.15-3.41,1.34-4,.31-.8,1.3-.86,2.86,0,6.33-.22,8.57-.88,12.71-1.42,7.35-1,10.46-1.51,6.12-1.12,8.39-1.59,3.8-.82,3.65-.38-2,1.66-4,3.38a82.35,82.35,0,0,0-6.22,6.09c-2,2.14-3.72,4.17-5,5.84a19.17,19.17,0,0,0-2.49,4,7,7,0,0,0-.57,2.66,4.29,4.29,0,0,0,.41,2.2,14.22,14.22,0,0,0,2,2.94,22.42,22.42,0,0,0,3,2.91,7.8,7.8,0,0,0,2.45,1.33,6.47,6.47,0,0,0,2.22.37,11.24,11.24,0,0,0,3.25-.55,38.45,38.45,0,0,0,5.94-2.39c2.5-1.22,5.54-2.92,8.49-4.75s5.82-3.8,8.2-5.61,4.27-3.45,6.4-5.4,4.5-4.22,6.15-6a33.45,33.45,0,0,0,3.46-4.33c.84-1.26,1.59-2.49,2.12-3.41a16.4,16.4,0,0,0,1.08-2.12,5,5,0,0,0,.37-2.16,18.76,18.76,0,0,0-.47-3.92,12,12,0,0,0-1.44-3.52,17.28,17.28,0,0,0-2.6-3.38,19,19,0,0,0-3.72-2.85,18.75,18.75,0,0,0-4.91-2.14,35.09,35.09,0,0,0-6.14-.89c-2-.14-3.73-.17-4.91-.18a15.17,15.17,0,0,1-2.16,0,.58.58,0,0,1-.54-.51,1.45,1.45,0,0,1,.21-1,16.32,16.32,0,0,1,1.65-2.36c1-1.24,2.48-3.06,3.83-4.55s2.52-2.62,3.79-3.89,2.65-2.66,4-3.92,2.82-2.4,4.36-3.62,3.19-2.52,4.49-3.51,2.21-1.68,2.11-1.24a29.7,29.7,0,0,1-2.11,3.44,39.9,39.9,0,0,0-2.19,4c-.62,1.28-1.17,2.56-1.67,3.84s-1,2.54-1.34,3.62a18.93,18.93,0,0,0-.87,2.73,4.35,4.35,0,0,0,.06,2.16,4.57,4.57,0,0,0,1.08,1.8,4.49,4.49,0,0,0,1.7,1.13,3.77,3.77,0,0,0,1.92.13,6,6,0,0,0,2.13-.93,20.19,20.19,0,0,0,2.72-2.25,44.49,44.49,0,0,0,3.41-3.64,29.44,29.44,0,0,0,2.73-4c.9-1.52,1.91-3.37,2.78-5.05s1.58-3.17,2.19-4.65a40.1,40.1,0,0,0,1.48-4.12,12.54,12.54,0,0,0,.55-2.91,5.55,5.55,0,0,0-.31-2.42,11,11,0,0,0-1.68-2.73,28,28,0,0,0-3-3.41,8.08,8.08,0,0,0-2.54-1.66,4.87,4.87,0,0,0-1.94-.39Z"/><path class="cls-2" d="M226.77,287.76h0c0,.11-.39,1.22-.43,1.4a28.07,28.07,0,0,1-1.19,3.24c-1.17,2.59-3.21,6.47-5.29,10.3s-4.25,7.57-6.27,10.74a84.28,84.28,0,0,1-6.12,8.49,94.18,94.18,0,0,1-7.06,7.71,45.74,45.74,0,0,1-5.58,4.7c-1.43,1-2.38,1.47-2.82,1.3s-.36-1.44-.16-2.79a51.23,51.23,0,0,1,1.16-6c.28-1,.78-2.4,1.51-4.82a52.74,52.74,0,0,1,1.75-5.14c.67-1.7,1.16-2.77,2.16-4.86s2.68-3.33,3.88-4.6,2.09-2.08,5-4.82a98.93,98.93,0,0,1,9-7.63c3.47-2.58,5.89-4.32,7.79-5.52A24,24,0,0,1,226.77,287.76ZM182.58,226a18.18,18.18,0,0,0-5.16.41c-7.23,1.59-15.79,7.56-24.44,17.06s-17.4,22.5-21.84,34.9-4.58,24.19-1.23,31.4,10.19,9.83,15.89,11.12a49.55,49.55,0,0,0,14.71,1c4.46-.26,9.68-.82,10,0s-3.92,3.78-7.74,6.39a104.46,104.46,0,0,1-8.91,5.76c-1,.4,1.12-1.57.56-3.78a6.22,6.22,0,0,0-7-3.89c-3.23.78-6.43,4.81-5.73,8.28s5.31,6.37,9.6,7.09,8.28-.76,12.61-2.78a70,70,0,0,0,12.91-7.57,32.74,32.74,0,0,0,5.29-5c0,.36-.09.72-.12,1.09a22.79,22.79,0,0,0,.48,7.95,15.59,15.59,0,0,0,3.77,6.46,18.13,18.13,0,0,0,5,3.69,7.21,7.21,0,0,0,4.15.86,15.06,15.06,0,0,0,5.54-1.69,32.68,32.68,0,0,0,7.08-5.14,74.25,74.25,0,0,0,8.23-9.12c2.88-3.7,5.86-8.05,8.19-11.69s4-6.58,5.58-9.7a103.62,103.62,0,0,0,4.29-9.44,47.26,47.26,0,0,0,2.41-7.9,13.54,13.54,0,0,0-1.43-9.95,19.34,19.34,0,0,0-2.45-3.42,11.67,11.67,0,0,0-2.19-2,4.51,4.51,0,0,0-2.13-.79,4.68,4.68,0,0,0-.67-.05,10.69,10.69,0,0,0-2.68.32,27.9,27.9,0,0,0-5.2,1.88,47.66,47.66,0,0,0-5.45,3.06c-1.55,1-2.64,1.83-3.7,2.65a12.64,12.64,0,0,1-2.88,1.9,2.35,2.35,0,0,1-1.84-.26,4.62,4.62,0,0,0-2.18-.28,5.63,5.63,0,0,0-2.94,1.35,19.82,19.82,0,0,0-3.33,4c-1.17,1.73-2.42,3.79-3.75,6.14s-2.76,5-4.06,7.35-2.51,4.56-3.43,6.66a46.81,46.81,0,0,0-2.06,5.85c-.28,1-.52,1.9-.75,2.82a10.56,10.56,0,0,0-3.45-2.86c-2.63-1.51-5.8-2.59-11.8-2.77s-14.79.53-20.75.3-9.07-1.39-10-5.67.19-11.67,3.19-20.72a93.61,93.61,0,0,1,15.63-29.41c7.81-9.65,18.59-18.21,24-21.29s5.58-.68,4.69,3.36a140.93,140.93,0,0,1-4.91,15.63,111,111,0,0,1-7.76,17.82,110.74,110.74,0,0,1-9.45,13.51c-2.07,2.61-2.07,2.61-1.61,3.49a12.74,12.74,0,0,0,2.93,3.94,8,8,0,0,0,5.64,1.88c2-.16,3.8-1.27,8.12-9.05a229.49,229.49,0,0,0,14.61-32.83c3.5-10.58,3.71-17.28.85-22A13.53,13.53,0,0,0,182.58,226Z"/><path class="cls-2" d="M106.92,328.69c.07-.44-1.77-1.09-2.73-1.66a3.29,3.29,0,0,1-1.07-2.37,19.81,19.81,0,0,1,0-5.1,17.27,17.27,0,0,1,1.61-6.1,46.9,46.9,0,0,1,3.58-5.9c1.28-1.77,2.07-2.82,3.35-4.59a19.1,19.1,0,0,0-2.36.93,17.8,17.8,0,0,1-2.82,1.27,11.44,11.44,0,0,1-2.51.58c-2.89.28-3.08.32-5.17-.33a3.5,3.5,0,0,1-2.41-2.54,6.3,6.3,0,0,1,.22-3.23,20.33,20.33,0,0,1,3.57-6.64c1.82-2,2.71-2.94,3.94-4.25,0-.57-.1-2.2-.13-2.76a25.3,25.3,0,0,1,0-5.92c.59-2.71.83-4.09,1.35-5.85a22,22,0,0,1,2.18-4.6,3.49,3.49,0,0,1,2.71-1.1,4.59,4.59,0,0,1,3,1.25,3.5,3.5,0,0,1,1.55,2.42c.44,2.1.09,2.64-.15,4.27a39.77,39.77,0,0,0-1.21,6.51,8.66,8.66,0,0,1,2.17,2.1c.53.8.69,1.25,1.21,2a6.18,6.18,0,0,1,.15,3c-.5,1.71-1.08,2.46-1.82,2.83,0,0-.1.35-1,.28a1.13,1.13,0,0,1-.88-.63,3.43,3.43,0,0,1-.62-1.76c.08-.91.15-1.87.24-2.78-.29.44-1.29,1.2-1.68,1.67a54.84,54.84,0,0,0-4.49,5.12,34.68,34.68,0,0,0-3.31,5.33,4.92,4.92,0,0,0,1.48-.55c1.28-.55,1.94-.75,3.23-1.31s2.34-.93,3.75-1.41a17.9,17.9,0,0,1,4.86-.44c.73.05,2,.2,2.43.77.67.49.73,1.92.48,2.74a9.15,9.15,0,0,1-1.07,2.48c-.92,1.44-2.92,4.34-4.2,6.48-1.13,1.9-3,5.61-3,5.61a20.06,20.06,0,0,0-1.47,4.08,21.54,21.54,0,0,0-.29,2.81s2.23-2.54,3.22-4a26.06,26.06,0,0,0,2.09-4.09c1.22-2.67.49-4.76.64-5.64.1-.54.83-.52,1.63-.3a5,5,0,0,1,3,1.73,7.41,7.41,0,0,1,1.62,3.75,22.45,22.45,0,0,1-.84,7.62,16.27,16.27,0,0,1-2.14,5.29c-.73,1.17-2.19,1.75-2.94,2.91a3.53,3.53,0,0,0-.51,1.4,28.11,28.11,0,0,0,.14,4.93c0,1.47.06,2.94,0,4.41a43,43,0,0,1-.4,5c-.3,2.28-.52,3.46-1.44,3.83a8,8,0,0,1-3.82.07c-.91-.22-2.91-1.43-3.28-3.08a49.3,49.3,0,0,1-.49-8.21c.14-3.08.62-7,.62-7C106.86,329.42,106.85,329.12,106.92,328.69Z"/><path class="cls-2" d="M712.22,259.77c.15,0,.24,0,.28.15.16.51-1,2.31-2.25,4.41s-2.66,4.49-4.11,6.73-3,4.31-4.32,6.1-2.48,3.28-3.06,4.29a3.06,3.06,0,0,0-.52,2.08,4.14,4.14,0,0,0,.57,1.71c.37.65,1,1.44.85,1.83s-1.07.38-2.76.38-4.15,0-6.71.05-5.21.11-7.14.18-3.16.15-3.84.13-.81-.11-.84-.34a1.55,1.55,0,0,1,.29-1,17.29,17.29,0,0,1,2.17-2.42c1.48-1.53,4-4.11,5.28-5.4a23.8,23.8,0,0,1,2.53-2.36c1.27-1.08,3.8-3.23,6.35-5.29s5.11-4,7.52-5.69,4.66-3,6.52-4A11.27,11.27,0,0,1,712.22,259.77Zm3.41-12.6a12.9,12.9,0,0,0-2.37.12,24.13,24.13,0,0,0-5.5,1.54,52.06,52.06,0,0,0-7,3.32,56.19,56.19,0,0,0-6.75,4.61,37,37,0,0,1-3.44,2.8c-.32.06.26-1.07.64-2a4.47,4.47,0,0,0,.32-2.81,10.05,10.05,0,0,0-1.67-3.39,10.34,10.34,0,0,0-2.63-2.62,3.47,3.47,0,0,0-2.33-.64c-.64.1-1.1.47-2.51,2.59s-3.77,6-6.57,10.69-6,10.21-9.31,15.78-6.62,11.18-9.57,16.16-5.49,9.32-7.49,12.62-3.45,5.55-3.65,4.18.82-6.38,1.81-10.3,1.95-6.77,2.93-9.62,2-5.73,3.1-8.93,2.35-6.73,3.09-9.22a13.81,13.81,0,0,0,.89-5.28,9,9,0,0,0-1.39-3.72,12.17,12.17,0,0,0-2.54-3,6.07,6.07,0,0,0-2.77-1.34,2.62,2.62,0,0,0-2.36.81,22.81,22.81,0,0,0-3.48,4.12c-1.38,2-3,4.55-5.55,8.58s-6.13,9.53-9.33,14.74-6,10.14-8.52,14.12-4.59,7-6,9-2.11,2.91-2.81,3.82a20.22,20.22,0,0,0-1.76,3,7.51,7.51,0,0,0-.69,3.13,6.75,6.75,0,0,0,.81,3.25,7.35,7.35,0,0,0,2.3,2.34,7.81,7.81,0,0,0,2.62,1.15,4.25,4.25,0,0,0,2.3-.12,6.09,6.09,0,0,0,2.26-1.42,23.6,23.6,0,0,0,2.84-3.47c1.22-1.69,2.8-4,4.12-6.11s2.39-4,3.51-6.05,2.31-4.42,3.09-6,1.17-2.47,1.12-1.77-.52,3-.93,5.17-.73,4.34-.88,6.16a27.78,27.78,0,0,0,0,4.58,11.07,11.07,0,0,0,.64,3.23,8.26,8.26,0,0,0,1.82,2.77,26,26,0,0,0,3.24,2.77A11.07,11.07,0,0,0,642.1,328a5.75,5.75,0,0,0,2.47.26,5.25,5.25,0,0,0,2.45-.89,18,18,0,0,0,3-2.73c1.1-1.18,2.29-2.6,3.94-4.76s3.78-5.07,5.37-7.39,2.65-4,3.85-6.06,2.56-4.35,3.63-6.28,1.86-3.44,2.32-4.34.59-1.17.81-1.08.54.55,1,1.07a10.13,10.13,0,0,0,1.82,1.6,9.1,9.1,0,0,0,2.7,1.21,18.37,18.37,0,0,0,4,.55c1.6.07,3.46,0,6.3-.05s6.64-.17,9.93-.23,6.08-.08,7.68-.09,2,0,2.16.35a3,3,0,0,1-.61,2.07,22.3,22.3,0,0,1-3,3.82c-1.46,1.55-3.4,3.4-5.24,5.07s-3.57,3.16-6,5.14-5.51,4.45-5.9,4.72,1.93-1.68,3.43-3a16.78,16.78,0,0,0,2.6-2.57,2.5,2.5,0,0,0,.54-1.52,6.52,6.52,0,0,0-.2-1.73,8.54,8.54,0,0,0-.88-2.18,15.67,15.67,0,0,0-1.83-2.68,4.26,4.26,0,0,0-2-1.41,3.75,3.75,0,0,0-2.5.24,17.05,17.05,0,0,0-3.67,2.38c-1.54,1.21-3.46,2.86-5.25,4.49a68.5,68.5,0,0,0-4.92,4.83,50.16,50.16,0,0,0-3.76,4.77,22.55,22.55,0,0,0-2.31,4,8.24,8.24,0,0,0-.68,3.5,10.46,10.46,0,0,0,1,4,17.64,17.64,0,0,0,2.89,4.43,7.68,7.68,0,0,0,3.24,2.13,7.07,7.07,0,0,0,3.2.34,13.41,13.41,0,0,0,4.36-1.43,77,77,0,0,0,8.32-4.8c3.56-2.3,7.92-5.36,11.27-7.94a83.27,83.27,0,0,0,7.68-6.66,65.15,65.15,0,0,0,5-5.49,37.48,37.48,0,0,0,3.14-4.53,9.6,9.6,0,0,0,1.44-3.84,16.35,16.35,0,0,0-.32-5.33,16.7,16.7,0,0,0-2.18-5.44,20.27,20.27,0,0,0-3.23-3.69,10.06,10.06,0,0,1-1.48-1.51c-.19-.34-.16-.63,1-2.23s3.35-4.5,5.34-7.27,3.71-5.41,5.22-8a51,51,0,0,0,3.56-7.1,13,13,0,0,0,1.05-5.21,14.53,14.53,0,0,0-1.13-5.06,29.68,29.68,0,0,0-2.63-5,4.11,4.11,0,0,0-2.51-2A8.75,8.75,0,0,0,715.63,247.17Z"/><path class="cls-2" d="M55,234.49a18.11,18.11,0,0,0-5.15.41c-7.25,1.59-15.8,7.55-24.45,17S8,274.46,3.56,286.86-1,311.05,2.33,318.26s10.19,9.83,15.89,11.12a49.55,49.55,0,0,0,14.71,1c4.46-.26,9.68-.83,10,0s-3.93,3.78-7.75,6.39-7.92,5.37-8.91,5.76,1.13-1.57.56-3.78a6.22,6.22,0,0,0-7-3.89c-3.23.78-6.44,4.8-5.73,8.27s5.31,6.38,9.6,7.1,8.28-.77,12.62-2.79a71.2,71.2,0,0,0,12.91-7.56,33.11,33.11,0,0,0,5.09-4.74c-.08.24-.16.49-.23.73a46.68,46.68,0,0,0-1.75,7.82,7.46,7.46,0,0,0,.55,4.41A7.34,7.34,0,0,0,55,350.48a2.38,2.38,0,0,0,1.52.59,1.53,1.53,0,0,0,1.19-.7,27.29,27.29,0,0,0,2.38-4.2c1.4-2.73,3.67-7.28,5.66-11.45s3.68-8,5-10.9,2.39-5,3-6.53a10.67,10.67,0,0,0,.71-3.28,3.63,3.63,0,0,0-.57-2.42,18.19,18.19,0,0,0-2.9-3.46,4.29,4.29,0,0,0-2.67-1.43c-.75,0-1.39.43-2.48,2.4s-2.63,5.44-4.13,8.64-3,6.09-4.29,9.08c-.28.65-.56,1.3-.83,2-.54-1.69-2.17-3-4.09-4.13-2.63-1.5-5.8-2.58-11.79-2.77s-14.8.53-20.76.31-9.06-1.4-10-5.67.19-11.67,3.19-20.73a93.35,93.35,0,0,1,15.64-29.41c7.8-9.64,18.59-18.2,24-21.28s5.58-.68,4.69,3.36a144.12,144.12,0,0,1-4.9,15.63,112.72,112.72,0,0,1-7.77,17.81,111.82,111.82,0,0,1-9.45,13.52c-2.07,2.6-2.07,2.6-1.6,3.49a12.52,12.52,0,0,0,2.92,3.94,8.09,8.09,0,0,0,5.64,1.88c2-.17,3.81-1.27,8.12-9.06A227.89,227.89,0,0,0,65,262.84c3.5-10.58,3.71-17.27.85-22A13.49,13.49,0,0,0,55,234.49Z"/><path class="cls-2" d="M87.07,280.49c-1.15,1.38-3.45,4.13-5.68,6.75s-4.39,5.11-6.16,7.64a37.29,37.29,0,0,0-3.78,6.63c-.61,1.53-.44,2-.19,2.51a4,4,0,0,0,1.14,1.37,2.82,2.82,0,0,0,1.79.63c.56-.06,1-.48,1.61-1.17s1.53-1.67,3.11-3.55,3.82-4.65,6.21-7.49,4.9-5.74,6.3-7.41,1.69-2.09,1.83-2.57a2.5,2.5,0,0,0-.18-1.66,6.78,6.78,0,0,0-1.37-1.9A3.88,3.88,0,0,0,90,279.19a4.62,4.62,0,0,0-1.5-.1C88.22,279.12,88.22,279.12,87.07,280.49Z"/></g></g><g id="Layer_10" data-name="Layer 10"><path class="cls-3" d="M416.5,163.5l40.93-1.11-40.89-1.11,1-65.34,30.69,16.88-30.65-19,.34-21.53,58.63,31.65L394.44,54.81,393.88,0l-1.34,53.68L348,26.91,247.4,86.5v27L348,57.66l43.88,24.13-2,78.76L348,159.41V118.73H297.75V92.37l-21.83,12.27v35.92h50.21v28.38H297.75V154.75H275.92v36h72l66.8-2.14.85,31.62.5-31.67,60.46-1.94-60.41-1.14ZM389.26,185l-41.3-.78V165.37l41.82-1.14Zm2.68-107.17L348,50.5v-16l44.46,24Zm2.55-18.24,17,9.19.59,21.58L394.69,79.54Zm.24,23.79L412.18,93,414,161.21l-18.51-.51Zm1,101.74-.22-21.05,18.54-.5.59,21.91Z"/><polygon class="cls-4" points="326.13 76.42 326.13 104.54 347.96 104.54 347.96 64.16 326.13 76.42"/><polygon class="cls-5" points="297.61 36.63 275.79 36.63 275.79 62.35 297.61 50.56 297.61 36.63"/></g></g></svg>