<svg xmlns="http://www.w3.org/2000/svg" viewBox="0 0 723.83 125.16"><defs><style>.cls-1{isolation:isolate;}.cls-2{fill:#d3ac0d;}</style></defs><g id="Layer_2" data-name="Layer 2"><g id="Layer_1-2" data-name="Layer 1"><g class="cls-1"><path class="cls-2" d="M594.15,15.37c-1.66,2.64-5,7.91-8.22,12.93S579.58,38.12,577,43a79,79,0,0,0-5.46,12.71c-.89,2.93-.64,3.86-.27,4.8a7.45,7.45,0,0,0,1.64,2.63,3.5,3.5,0,0,0,2.59,1.21c.81-.11,1.4-.91,2.33-2.24s2.22-3.21,4.49-6.81,5.53-8.92,9-14.37,7.09-11,9.12-14.2,2.44-4,2.63-4.93a6,6,0,0,0-.25-3.18,13.92,13.92,0,0,0-2-3.65,5.78,5.78,0,0,0-2.42-2.08,5,5,0,0,0-2.17-.18C595.82,12.73,595.82,12.73,594.15,15.37Z"/><path class="cls-2" d="M574.81,68.6a19.7,19.7,0,0,0-3.14-3.81,4.69,4.69,0,0,0-2.89-1.57c-.81,0-1.5.48-2.68,2.64s-2.85,6-4.48,9.5-3.22,6.7-4.64,10a90.6,90.6,0,0,0-3.6,9.91,50.28,50.28,0,0,0-1.89,8.6,8.24,8.24,0,0,0,.59,4.84,8.15,8.15,0,0,0,2.29,2.67A2.56,2.56,0,0,0,556,112a1.64,1.64,0,0,0,1.29-.76,30.46,30.46,0,0,0,2.57-4.63c1.52-3,4-8,6.13-12.58s4-8.77,5.46-12,2.58-5.49,3.19-7.17a11.57,11.57,0,0,0,.76-3.61A3.88,3.88,0,0,0,574.81,68.6Z"/><path class="cls-2" d="M617.92,45.77a8.48,8.48,0,0,1-.42,1.41,26.32,26.32,0,0,1-1.19,3.25C615.14,53,613.1,56.9,611,60.72s-4.24,7.57-6.26,10.74A85.16,85.16,0,0,1,598.64,80a96.36,96.36,0,0,1-7.06,7.72,47.32,47.32,0,0,1-5.58,4.7c-1.44,1-2.39,1.47-2.83,1.3s-.36-1.44-.16-2.79a50.83,50.83,0,0,1,1.16-6c.29-1,.78-2.4,1.51-4.83s1.08-3.42,1.75-5.13,1.16-2.77,2.16-4.86,2.68-3.34,3.89-4.6,2.08-2.08,5-4.83a98.79,98.79,0,0,1,9-7.62c3.46-2.59,5.88-4.33,7.78-5.53A30.79,30.79,0,0,1,617.92,45.77Zm1-12.24a10.17,10.17,0,0,0-2.67.32A27,27,0,0,0,611,35.73a48.53,48.53,0,0,0-5.45,3.06c-1.54,1-2.64,1.83-3.7,2.65a12.84,12.84,0,0,1-2.87,1.9,2.43,2.43,0,0,1-1.85-.26A4.62,4.62,0,0,0,595,42.8,5.61,5.61,0,0,0,592,44.16a20.06,20.06,0,0,0-3.33,4c-1.16,1.73-2.41,3.8-3.75,6.14s-2.75,5-4.06,7.35-2.51,4.56-3.43,6.66a45.61,45.61,0,0,0-2.05,5.85c-.5,1.73-.84,3.15-1.24,4.91a47.44,47.44,0,0,0-1.08,6.35,22.71,22.71,0,0,0,.48,7.94,15.67,15.67,0,0,0,3.77,6.47,18.13,18.13,0,0,0,5,3.69,7.2,7.2,0,0,0,4.15.85A14.87,14.87,0,0,0,592,102.7a32,32,0,0,0,7.08-5.13,75,75,0,0,0,8.23-9.12c2.88-3.7,5.86-8.06,8.19-11.7a111.44,111.44,0,0,0,5.58-9.69,103.62,103.62,0,0,0,4.29-9.44,47.26,47.26,0,0,0,2.41-7.9,13.54,13.54,0,0,0-1.43-9.95,18.16,18.16,0,0,0-2.45-3.42,11.67,11.67,0,0,0-2.19-2,4.58,4.58,0,0,0-2.13-.79C619.37,33.55,619.15,33.54,618.91,33.53Z"/><path class="cls-2" d="M349.32,48.21c.88,0,1,.63,1,1.79a22.52,22.52,0,0,1-.78,5.67,65.51,65.51,0,0,1-3.21,9.19,80.83,80.83,0,0,1-4.9,9.75,115.78,115.78,0,0,1-6.48,9.68,49,49,0,0,1-7.06,8.08A16,16,0,0,1,321.43,96c-1.45.26-1.83-.5-2.1-1.78a24.19,24.19,0,0,1-.37-5.4,41.72,41.72,0,0,1,1-7.91,44.27,44.27,0,0,1,2.49-7.73,24.71,24.71,0,0,1,2.67-4.54,61,61,0,0,1,4.23-5.75,67.8,67.8,0,0,1,14.41-12.29,15.72,15.72,0,0,1,5.38-2.35ZM307.48,8.12a19.66,19.66,0,0,0-2.34.17,11.6,11.6,0,0,0-4.44,1.55,43.72,43.72,0,0,0-6.45,4.46,55,55,0,0,0-7,7,89.17,89.17,0,0,0-7,9.63c-2.32,3.66-4.66,7.77-6.85,12.13s-4.25,9-6,13.45-3.31,8.71-4.61,12.93-2.38,8.37-3.21,12a93.19,93.19,0,0,0-1.75,9.64,61.82,61.82,0,0,0-.39,7.67,34.59,34.59,0,0,0,.59,7.06,23,23,0,0,0,2.54,6.91,12.73,12.73,0,0,0,4.3,4.36,21.32,21.32,0,0,0,6,2.68,15.14,15.14,0,0,0,6,.29A19,19,0,0,0,283,118a50.23,50.23,0,0,0,7.43-5,101.13,101.13,0,0,0,8.67-7.72c3.15-3.12,6.6-6.86,8.38-8.82s1.9-2.13,2.11-1.64a16.65,16.65,0,0,0,1.2,2.82,12.81,12.81,0,0,0,3.31,3.57,30.1,30.1,0,0,0,5.3,3.24,14.28,14.28,0,0,0,4.8,1.45,12.84,12.84,0,0,0,5.09-.4,14.38,14.38,0,0,0,5.26-3.16,58.24,58.24,0,0,0,6.78-7,93,93,0,0,0,6.57-9.21c1.95-3.1,3.58-6.07,4.71-8.21,1-1.82,1.55-3,1.66-3.13s0,0,0,0h0a.23.23,0,0,1,0,.07c-.08.39-.86,2.49-1.86,5S350.21,85.11,349,88s-2.44,5.95-3.24,8.13a23.61,23.61,0,0,0-1.33,4.59,4.05,4.05,0,0,0,.42,2.73,6.68,6.68,0,0,0,2.55,2.3,14.5,14.5,0,0,0,4,1.52,5,5,0,0,0,3-.14,3.39,3.39,0,0,0,1.71-1.85c.39-.87.64-2,1.6-4.79s2.64-7.24,4.35-11.5,3.45-8.33,4.81-11.42,2.32-5.2,3.34-7.42,2.08-4.53,2.7-5.94a5.73,5.73,0,0,1,.58-1.23h0a5.3,5.3,0,0,1-.13,1.48c-.29,2.19-1,7.1-1.58,11.45s-.89,8.15-1.11,11.61-.32,6.57-.3,9.25a42,42,0,0,0,.44,6.55,7,7,0,0,0,1.56,3.65,10.36,10.36,0,0,0,3.44,2.46,14.76,14.76,0,0,0,4.11,1.23,4.41,4.41,0,0,0,2.83-.32,4.5,4.5,0,0,0,1.79-2.38c.56-1.3,1.17-3.21,2.18-6.41s2.4-7.69,4.37-13.14,4.53-11.86,6.71-17.12,4-9.34,5.91-13.66,4-8.85,5.79-12.37,3.27-6,4.31-7.73a34.09,34.09,0,0,0,1.92-3.38,4.7,4.7,0,0,0,.39-2,3.42,3.42,0,0,0-.53-1.82,7.18,7.18,0,0,0-1.84-1.86,9.82,9.82,0,0,0-2.46-1.3,10.24,10.24,0,0,0-2.55-.64,4.46,4.46,0,0,0-1.91.16,4.16,4.16,0,0,0-1.59,1,17.1,17.1,0,0,0-2.57,3.35,104.72,104.72,0,0,0-5.7,9.88c-2.26,4.41-4.68,9.85-6.46,13.89a94.68,94.68,0,0,0-3.8,9.54c-.91,2.89-1.62,6-1.89,6.54a.19.19,0,0,1-.07.08h0a18.09,18.09,0,0,1,.21-4c.23-2.29.53-4.71.76-6.89s.4-4.1.69-6.31.68-4.69.86-6.36a9.63,9.63,0,0,0,0-3.27,5.65,5.65,0,0,0-1-2.25,11.9,11.9,0,0,0-2.25-2.14,20,20,0,0,0-2.72-1.72,11.71,11.71,0,0,0-2.23-.89,4.73,4.73,0,0,0-2.21-.13,6,6,0,0,0-3.09,1.67,27.42,27.42,0,0,0-4.34,6c-1.88,3.15-4.34,7.67-6.23,11.34s-3.21,6.48-4.1,8.32a10.22,10.22,0,0,1-1.08,2h0a1.94,1.94,0,0,1,.13-.72c.39-1.45,1.64-5.23,2.35-7.94a19.34,19.34,0,0,0,.86-5.92,11.77,11.77,0,0,0-1-4.45,15.83,15.83,0,0,0-6.78-7.14,14.21,14.21,0,0,0-4.85-1.5,19.39,19.39,0,0,0-5.65.07,12.63,12.63,0,0,0-4.38,1.7,31.91,31.91,0,0,1-4.59,2.5c-1.72.67-3.66,1-5.38,1.66A13.52,13.52,0,0,0,323.87,48a44.43,44.43,0,0,0-5.57,7.68c-2.32,3.78-5.3,9.12-7.25,13.15s-2.84,6.72-4.42,9.48a51.67,51.67,0,0,1-6.73,8.76c-2.89,3.19-6.43,6.76-9.9,10s-6.86,6.16-9.61,8.35a58.68,58.68,0,0,1-6.34,4.54c-1.53.9-2.5,1.25-3.24.81s-1.27-1.64-1.51-4.12A49.8,49.8,0,0,1,269.66,96a133.92,133.92,0,0,1,2.86-14.39c1.18-4.77,2.43-9.13,4.08-13.89a149.17,149.17,0,0,1,6.07-14.89,137.07,137.07,0,0,1,7.71-14.08A84.51,84.51,0,0,1,298.27,28a59.74,59.74,0,0,1,7.87-7.58c2.38-1.83,4.32-2.84,5.36-2.91s1.18.8,1.23,2.12a26.38,26.38,0,0,1-.41,5.61,71.13,71.13,0,0,1-2.15,8.64,58.48,58.48,0,0,1-2.92,7.47c-1.09,2.34-2.34,4.7-3,5.88a13.41,13.41,0,0,1-1,1.78A28.14,28.14,0,0,1,301,52c-1.08,1.19-2.41,2.4-3.4,3.29a9,9,0,0,0-1.94,2.09,2.24,2.24,0,0,0-.14,1.78,3.81,3.81,0,0,0,1.4,1.69A22.31,22.31,0,0,0,300.24,63a9.41,9.41,0,0,0,3.34,1.1,6.48,6.48,0,0,0,3.09-.39,7.41,7.41,0,0,0,2.72-2.13,46,46,0,0,0,3.69-4.76c1.37-2,2.81-4.32,4-6.52a56.44,56.44,0,0,0,3.11-6.72A64,64,0,0,0,322.62,36a36.8,36.8,0,0,0,.95-6.47,36.6,36.6,0,0,0-.08-6.2,22.4,22.4,0,0,0-1.26-5.45,12.64,12.64,0,0,0-2.22-3.8,18.34,18.34,0,0,0-3.2-3,17.09,17.09,0,0,0-3.42-1.94,12.57,12.57,0,0,0-3.61-.92A18.83,18.83,0,0,0,307.48,8.12Z"/><path class="cls-2" d="M482.45,51.67a.38.38,0,0,1,.43.41c0,.72-.69,2.42-1.86,4.85s-2.76,5.58-3.95,8.24-2,4.81-2.38,5.89-.39,1.08-.54,1-.44-.38-1-.93a24,24,0,0,0-2.25-2,10.06,10.06,0,0,0-2.46-1.35,2.17,2.17,0,0,0-1.66-.1,5.52,5.52,0,0,0-1.8,1.47c-.8.85-1.89,2.12-3.62,3.79s-4.11,3.77-6.81,6.18-5.72,5.15-7.76,7-3.1,2.93-3.24,2.32.61-2.84,1.52-5.28,2-5.1,3.27-8.22,2.91-6.72,4-8.86a10.09,10.09,0,0,1,2.16-3.35A11.87,11.87,0,0,1,458,60.74c2.27-1,6.11-2.51,10.23-4.08s8.52-3.18,11.14-4.11A11.92,11.92,0,0,1,482.45,51.67Zm25.33-6.33c.2,0,.32,0,.35.15.11.41-1.33,1.76-3.26,3.54s-4.36,4-6.57,5.84-4.22,3.3-5.22,4a7.89,7.89,0,0,1-1,.71h0a.46.46,0,0,1-.13-.22,1.7,1.7,0,0,1,0-.66,8.89,8.89,0,0,1,.66-2.18,32.91,32.91,0,0,1,2.33-4.63A7.43,7.43,0,0,1,498.19,49a63.4,63.4,0,0,1,6.14-2.66,15.6,15.6,0,0,1,3.45-1Zm-53.86-7c.3,0-.4,1.27-1.33,2.85s-2.27,3.72-3.47,5.87-2.3,4.41-3.1,5.8a6.08,6.08,0,0,1-2.13,2.48A19.15,19.15,0,0,1,441,56.93c-.82.35-1.27.42-1.58.31a.62.62,0,0,1-.4-.68,1.32,1.32,0,0,1,.44-.63l.13-.12c1.32-1.86,2.63-3.73,4.33-5.94s3.78-4.75,5.71-7a35.55,35.55,0,0,1,4.19-4.48A.16.16,0,0,1,453.92,38.35Zm34.67-.27c1.17,0,1.23.25,1.22.54a3.33,3.33,0,0,1-.35,1.33,14.73,14.73,0,0,1-1.61,2.67c-.83,1.11-2,2.43-2.93,3.57a14.88,14.88,0,0,1-2.17,2.42c-.51.32-.81,0-1.24-.43A8.58,8.58,0,0,0,480,46.87a3.55,3.55,0,0,0-2-.49,22,22,0,0,0-3.68.49c-1.84.34-4.5.86-6.94,1.41a40.61,40.61,0,0,1-5.57,1.1c-.91,0-.51-.59,0-1.39l1.55-2.33c.34-.52.33-.52.64-1s.91-1.44,1.39-2.11a5.86,5.86,0,0,1,1.26-1.36,4.68,4.68,0,0,1,2-.85c1.05-.23,2.64-.43,5.1-.77s5.8-.8,8.59-1.1A52.57,52.57,0,0,1,488.59,38.08Zm76.2-22.53a11,11,0,0,0-2.81.36,22.38,22.38,0,0,0-4.4,1.61,58.32,58.32,0,0,0-6,3.42c-2.16,1.38-4.37,2.93-6.36,4.47s-3.77,3.06-5.47,4.56-3.33,3-4.69,4.36-2.46,2.71-3.49,3.94-2,2.4-2.8,3.46a28,28,0,0,0-1.91,2.9,21.54,21.54,0,0,0-1.24,2.51,11.69,11.69,0,0,0-.77,2.53,9.23,9.23,0,0,0,0,2.63,12.89,12.89,0,0,0,.65,3,13.23,13.23,0,0,0,1.65,3,25.54,25.54,0,0,0,2.7,3.17,13.73,13.73,0,0,0,3,2.21,17.9,17.9,0,0,0,3.91,1.66,25.44,25.44,0,0,0,5,.79c2,.16,4.56.28,6.37.34a20,20,0,0,1,3.47.24c.54.17.53.49.33,1.08a11.87,11.87,0,0,1-1.46,2.71c-.86,1.26-2.19,2.93-3.45,4.41a52.62,52.62,0,0,1-4,4.28c-1.59,1.51-3.57,3.23-5.52,4.79s-3.87,3-5.82,4.26a20.28,20.28,0,0,1-3.26,2h0s.07-.13.21-.27c.87-.85,4.59-3.76,7.17-5.84s4-3.3,5-4.2a7.45,7.45,0,0,0,1.76-2,3.46,3.46,0,0,0,.32-1.78,6.36,6.36,0,0,0-.4-2,5.41,5.41,0,0,0-1.28-1.8,23.13,23.13,0,0,0-1.93-1.72,2.08,2.08,0,0,0-1.24-.63,5.83,5.83,0,0,0-2,.24,10.73,10.73,0,0,0-2.08,1c-.7.39-1.46.81-2,1a1.41,1.41,0,0,1-1.27.09,5.66,5.66,0,0,1-1.53-1c-.45-.42-.76-.86-1.13-1.27a8.88,8.88,0,0,0-1.13-1c-.33-.24-.56-.35-2.18-.34s-4.66.16-7.64.22-5.93,0-7.81.16a30.13,30.13,0,0,0-4.11.77c-1.38.27-3.3.43-4.83.73s-2.67.71-2.13.09,2.75-2.27,5-4.06,4.5-3.71,6.86-5.8,4.79-4.34,6.84-6.32,3.69-3.69,4.82-5a15.08,15.08,0,0,0,2.2-3.2,9.53,9.53,0,0,0,.87-2.51,5.34,5.34,0,0,0,0-2.07,6.52,6.52,0,0,0-.9-2,21.21,21.21,0,0,0-2-2.73,14.33,14.33,0,0,0-2.72-2.51,10.54,10.54,0,0,0-3.08-1.42,12.38,12.38,0,0,0-3.43-.38,29.33,29.33,0,0,0-4.57.44A24,24,0,0,0,504,34.12c-1.13.42-1.95.84-2.82,1.12a6.24,6.24,0,0,1-2.54.29,3.66,3.66,0,0,1-1.79-.86,4.88,4.88,0,0,0-1.58-1.06,3.76,3.76,0,0,0-2,.17,5.68,5.68,0,0,1-2,.38c-.54-.07-.89-.49-1.52-1.11a23.81,23.81,0,0,0-2.36-2,7.29,7.29,0,0,0-2.78-1.31,18.68,18.68,0,0,0-4.42-.34c-1.86,0-4.15.19-6.16.4s-3.72.52-5.8.71-4.51.28-6.12.5a22.71,22.71,0,0,0-3.41.83,12.77,12.77,0,0,1-3.3.38,7.17,7.17,0,0,1-2.73-.67c-.9-.39-1.91-.93-2.71-1.24a4.71,4.71,0,0,0-2.05-.37,4.32,4.32,0,0,0-2.72,1.29,50.23,50.23,0,0,0-6.49,6.93c-3.07,3.72-7.17,9.1-10.77,14.14s-6.73,9.77-9,13.3-3.61,5.75-3.85,5.64l0,0c-.17-.28.9-3.19,2.06-6.24s2.41-6.24,3.7-9.45,2.6-6.43,3.78-8.9a44.9,44.9,0,0,0,2.65-5.69,5.33,5.33,0,0,0-.38-4.1,8.52,8.52,0,0,0-2.82-3,5.72,5.72,0,0,0-3.15-1c-1,0-2,.28-3.29,1.92a46.39,46.39,0,0,0-4.08,7.42c-1.29,2.76-2.33,5.26-3.22,7.37h0c-.89,2.12-1.63,3.85-2.26,5.38s-1.18,2.87-2.18,5.66-2.48,7-3.84,11.56-2.61,9.33-3.54,13.43-1.55,7.48-1.87,9.84a19.81,19.81,0,0,0-.25,4.7,3.37,3.37,0,0,0,1,2.19,11.68,11.68,0,0,0,2.78,2,16,16,0,0,0,3.85,1.56,6.27,6.27,0,0,0,3.16,0,3.83,3.83,0,0,0,2-1.49,33.15,33.15,0,0,0,2.27-3.68c1-1.71,2.2-4,3.75-6.68s3.41-5.85,5.31-8.76,3.82-5.56,5.72-8.38,3.74-5.83,5-7.94,2-3.31,2.38-4,.48-.8,1-.46a15.52,15.52,0,0,1,2.18,1.81,3.46,3.46,0,0,1,1,1.56,3.16,3.16,0,0,1-.32,2c-.4,1.11-1.18,2.9-2,4.77s-1.55,3.82-2.22,5.85a57.78,57.78,0,0,0-1.64,6.06,46.06,46.06,0,0,0-.81,5.19,14.17,14.17,0,0,0,0,3.77,4.87,4.87,0,0,0,1.76,2.9,37,37,0,0,0,4.58,3.44,11.39,11.39,0,0,0,3.58,1.71,5.63,5.63,0,0,0,3.33-.29,20.71,20.71,0,0,0,4.66-2.63c1.76-1.27,3.7-2.9,5.82-4.75s4.42-3.91,6.72-6,4.57-4.24,6.19-5.86,2.58-2.71,2.72-2.53-.55,1.64-1.33,3.44-1.67,3.92-2.47,6-1.5,4.16-2.05,5.87a27.11,27.11,0,0,0-1.06,4.18,4.91,4.91,0,0,0,.29,2.75,6.64,6.64,0,0,0,2.3,2.57,27.54,27.54,0,0,0,4.74,2.82,4.14,4.14,0,0,0,2.84.46,1.45,1.45,0,0,0,1.07-1.09,6.47,6.47,0,0,0,0-1.87,7.19,7.19,0,0,1,.35-2.66c.38-1.47,1.15-3.86,2.28-7s2.59-7.07,3.47-9.51,1.15-3.41,1.34-4,.31-.81,1.3-.86,2.86,0,6.33-.22,8.57-.88,12.71-1.42,7.35-1,10.46-1.51,6.12-1.12,8.39-1.6,3.8-.81,3.65-.38-2,1.66-4,3.39a80.47,80.47,0,0,0-6.22,6.09c-2,2.13-3.72,4.17-5,5.84a19.17,19.17,0,0,0-2.49,4,7,7,0,0,0-.57,2.65,4.31,4.31,0,0,0,.41,2.21,14.49,14.49,0,0,0,2,2.94,22.42,22.42,0,0,0,3,2.91,7.8,7.8,0,0,0,2.45,1.33,6.71,6.71,0,0,0,2.22.36,11.24,11.24,0,0,0,3.25-.55,38.2,38.2,0,0,0,5.94-2.38c2.5-1.22,5.54-2.92,8.49-4.76s5.82-3.79,8.2-5.6,4.27-3.45,6.4-5.4,4.5-4.22,6.15-6A32.8,32.8,0,0,0,558.53,80c.84-1.26,1.59-2.49,2.12-3.42a16.4,16.4,0,0,0,1.08-2.11,5.07,5.07,0,0,0,.37-2.17,18.75,18.75,0,0,0-.47-3.91,12,12,0,0,0-1.44-3.52,17.33,17.33,0,0,0-2.6-3.39,19,19,0,0,0-3.72-2.84A18.43,18.43,0,0,0,549,56.54a35.09,35.09,0,0,0-6.14-.89c-2-.14-3.73-.17-4.91-.18a15.17,15.17,0,0,1-2.16,0,.58.58,0,0,1-.54-.51,1.44,1.44,0,0,1,.21-1,15.76,15.76,0,0,1,1.65-2.36c1-1.24,2.48-3.06,3.83-4.55s2.52-2.63,3.79-3.89,2.65-2.66,4-3.92,2.82-2.41,4.36-3.62,3.19-2.52,4.49-3.52,2.21-1.67,2.11-1.23a29.7,29.7,0,0,1-2.11,3.44,39.9,39.9,0,0,0-2.19,4c-.62,1.28-1.17,2.56-1.67,3.84s-1,2.54-1.34,3.61a19.33,19.33,0,0,0-.87,2.73,4.34,4.34,0,0,0,.06,2.16,4.6,4.6,0,0,0,1.08,1.81,4.35,4.35,0,0,0,1.7,1.12,3.66,3.66,0,0,0,1.92.14,6,6,0,0,0,2.13-.93,20.39,20.39,0,0,0,2.72-2.26,42.75,42.75,0,0,0,3.41-3.63,29.44,29.44,0,0,0,2.73-4c.9-1.53,1.91-3.37,2.78-5s1.58-3.17,2.19-4.65a40.2,40.2,0,0,0,1.48-4.13,12.47,12.47,0,0,0,.55-2.9,5.55,5.55,0,0,0-.31-2.42A11,11,0,0,0,572.27,21a28,28,0,0,0-3-3.41A7.9,7.9,0,0,0,566.73,16a4.89,4.89,0,0,0-1.94-.4Z"/><path class="cls-2" d="M226.77,61.84h0a14.35,14.35,0,0,1-.43,1.39,27.44,27.44,0,0,1-1.19,3.25C224,69.09,222,73,219.87,76.8s-4.25,7.56-6.27,10.74A83,83,0,0,1,207.48,96a92.76,92.76,0,0,1-7.06,7.72,45.74,45.74,0,0,1-5.58,4.7c-1.43,1-2.38,1.47-2.82,1.3s-.36-1.44-.16-2.79a50.83,50.83,0,0,1,1.16-6c.28-1,.78-2.4,1.51-4.82A52.74,52.74,0,0,1,196.28,91c.67-1.7,1.16-2.77,2.16-4.86s2.68-3.34,3.88-4.6,2.09-2.08,5-4.83a98.87,98.87,0,0,1,9-7.62c3.47-2.58,5.89-4.33,7.79-5.52A26.61,26.61,0,0,1,226.77,61.84ZM182.58,0a18.18,18.18,0,0,0-5.16.41C170.19,2,161.63,8,153,17.5S135.58,40,131.14,52.41s-4.58,24.19-1.23,31.4,10.19,9.83,15.89,11.12a49.55,49.55,0,0,0,14.71,1c4.46-.26,9.68-.82,10,0s-3.92,3.78-7.74,6.39-7.92,5.36-8.91,5.76,1.12-1.57.56-3.78a6.22,6.22,0,0,0-7-3.89c-3.23.78-6.43,4.81-5.73,8.27s5.31,6.38,9.6,7.1,8.28-.76,12.61-2.78a71.15,71.15,0,0,0,12.91-7.57,32.74,32.74,0,0,0,5.29-5c0,.35-.09.72-.12,1.09a22.72,22.72,0,0,0,.48,7.94,15.63,15.63,0,0,0,3.77,6.47,18.13,18.13,0,0,0,5,3.69,7.2,7.2,0,0,0,4.15.85,14.87,14.87,0,0,0,5.54-1.69,32.26,32.26,0,0,0,7.08-5.13,75,75,0,0,0,8.23-9.12c2.88-3.7,5.86-8.06,8.19-11.7s4-6.57,5.58-9.69a103.62,103.62,0,0,0,4.29-9.44,47.26,47.26,0,0,0,2.41-7.9,13.54,13.54,0,0,0-1.43-10,18.62,18.62,0,0,0-2.45-3.42,12.13,12.13,0,0,0-2.19-2,4.74,4.74,0,0,0-2.13-.79c-.21,0-.43,0-.67,0a10.61,10.61,0,0,0-2.68.31,27.31,27.31,0,0,0-5.2,1.89,47.66,47.66,0,0,0-5.45,3.06c-1.55,1-2.64,1.83-3.7,2.65a12.64,12.64,0,0,1-2.88,1.9,2.4,2.4,0,0,1-1.84-.26,4.62,4.62,0,0,0-2.18-.28,5.63,5.63,0,0,0-2.94,1.35,19.82,19.82,0,0,0-3.33,4c-1.17,1.73-2.42,3.79-3.75,6.14s-2.76,5-4.06,7.35-2.51,4.56-3.43,6.65a46.91,46.91,0,0,0-2.06,5.86c-.28,1-.52,1.9-.75,2.82a10.56,10.56,0,0,0-3.45-2.86c-2.63-1.51-5.8-2.59-11.8-2.77s-14.79.52-20.75.3-9.07-1.39-10-5.67.19-11.67,3.19-20.73A93.71,93.71,0,0,1,156.3,31.93c7.81-9.64,18.59-18.2,24-21.28S185.92,10,185,14a141.6,141.6,0,0,1-4.91,15.63,111,111,0,0,1-7.76,17.82A111.55,111.55,0,0,1,162.91,61c-2.07,2.6-2.07,2.6-1.61,3.49a12.74,12.74,0,0,0,2.93,3.94,8,8,0,0,0,5.64,1.88c2-.17,3.8-1.27,8.12-9.05A229.14,229.14,0,0,0,192.6,28.39c3.5-10.57,3.71-17.27.85-22A13.5,13.5,0,0,0,182.58,0Z"/><path class="cls-2" d="M106.92,102.78c.07-.44-1.77-1.1-2.73-1.66a3.31,3.31,0,0,1-1.07-2.37,19.8,19.8,0,0,1,0-5.1,17.27,17.27,0,0,1,1.61-6.1,47,47,0,0,1,3.58-5.91c1.28-1.76,2.07-2.81,3.35-4.58a17.56,17.56,0,0,0-2.36.93,18.78,18.78,0,0,1-2.82,1.27,11.44,11.44,0,0,1-2.51.58c-2.89.28-3.08.32-5.17-.33A3.5,3.5,0,0,1,96.42,77a6.34,6.34,0,0,1,.22-3.24,20.53,20.53,0,0,1,3.57-6.64c1.82-2,2.71-2.93,3.94-4.24,0-.57-.1-2.2-.13-2.76a25.39,25.39,0,0,1,0-5.93c.59-2.7.83-4.08,1.35-5.84a22,22,0,0,1,2.18-4.6,3.53,3.53,0,0,1,2.71-1.11,4.59,4.59,0,0,1,3,1.26,3.5,3.5,0,0,1,1.55,2.42c.44,2.1.09,2.64-.15,4.27a39.38,39.38,0,0,0-1.21,6.51,8.66,8.66,0,0,1,2.17,2.1c.53.79.69,1.24,1.21,2a6.18,6.18,0,0,1,.15,3c-.5,1.71-1.08,2.46-1.82,2.83,0,0-.1.35-1,.28a1.13,1.13,0,0,1-.88-.63,3.46,3.46,0,0,1-.62-1.76c.08-.91.15-1.87.24-2.78-.29.44-1.29,1.19-1.68,1.67a54.74,54.74,0,0,0-4.49,5.11,35.12,35.12,0,0,0-3.31,5.34A4.92,4.92,0,0,0,105,73.7c1.28-.56,1.94-.75,3.23-1.31s2.34-.94,3.75-1.41a17.9,17.9,0,0,1,4.86-.44c.73,0,2,.2,2.43.76.67.5.73,1.93.48,2.75a9.43,9.43,0,0,1-1.07,2.48c-.92,1.43-2.92,4.33-4.2,6.47-1.13,1.91-3,5.61-3,5.61A20.26,20.26,0,0,0,110,92.7a21.39,21.39,0,0,0-.29,2.81s2.23-2.54,3.22-4A25.94,25.94,0,0,0,115,87.4c1.22-2.67.49-4.76.64-5.65.1-.54.83-.51,1.63-.29a5,5,0,0,1,3,1.73,7.41,7.41,0,0,1,1.62,3.75,22.39,22.39,0,0,1-.84,7.61,16.24,16.24,0,0,1-2.14,5.3c-.73,1.17-2.19,1.75-2.94,2.91a3.48,3.48,0,0,0-.51,1.4,28.11,28.11,0,0,0,.14,4.93c0,1.46.06,2.94,0,4.41a43,43,0,0,1-.4,5c-.3,2.28-.52,3.46-1.44,3.83a8,8,0,0,1-3.82.07c-.91-.22-2.91-1.43-3.28-3.08a49.36,49.36,0,0,1-.49-8.21c.14-3.08.62-7,.62-7C106.86,103.51,106.85,103.21,106.92,102.78Z"/><path class="cls-2" d="M712.22,33.86c.15,0,.24,0,.28.15.16.51-1,2.31-2.25,4.41s-2.66,4.49-4.11,6.72-3,4.32-4.32,6.11-2.48,3.28-3.06,4.29a3.05,3.05,0,0,0-.52,2.08,4.06,4.06,0,0,0,.57,1.7c.37.66,1,1.45.85,1.84s-1.07.38-2.76.38-4.15,0-6.71.05-5.21.11-7.14.18-3.16.14-3.84.13-.81-.11-.84-.35a1.53,1.53,0,0,1,.29-1,17.29,17.29,0,0,1,2.17-2.42c1.48-1.53,4-4.11,5.28-5.4a25,25,0,0,1,2.53-2.37c1.27-1.07,3.8-3.22,6.35-5.29s5.11-4,7.52-5.68,4.66-3,6.52-4A11.44,11.44,0,0,1,712.22,33.86Zm3.41-12.61a14.94,14.94,0,0,0-2.37.12,24.21,24.21,0,0,0-5.5,1.55,52.06,52.06,0,0,0-7,3.32A56.19,56.19,0,0,0,694,30.85a37,37,0,0,1-3.44,2.8c-.32.06.26-1.07.64-2a4.47,4.47,0,0,0,.32-2.81,9.92,9.92,0,0,0-1.67-3.38,10.34,10.34,0,0,0-2.63-2.62,3.41,3.41,0,0,0-2.33-.64c-.64.1-1.1.46-2.51,2.59s-3.77,6-6.57,10.69-6,10.21-9.31,15.78-6.62,11.18-9.57,16.16S651.45,76.7,649.45,80s-3.45,5.55-3.65,4.18.82-6.38,1.81-10.3,1.95-6.77,2.93-9.63,2-5.72,3.1-8.93,2.35-6.73,3.09-9.21a13.81,13.81,0,0,0,.89-5.28,9,9,0,0,0-1.39-3.72,12.17,12.17,0,0,0-2.54-3,6.21,6.21,0,0,0-2.77-1.35,2.64,2.64,0,0,0-2.36.81,23.55,23.55,0,0,0-3.48,4.12c-1.38,2-3,4.56-5.55,8.59S633.4,55.75,630.2,61s-6,10.15-8.52,14.13-4.59,7-6,9-2.11,2.9-2.81,3.82a20.13,20.13,0,0,0-1.76,3,7.56,7.56,0,0,0-.69,3.14,6.75,6.75,0,0,0,.81,3.25,7.35,7.35,0,0,0,2.3,2.34,8,8,0,0,0,2.62,1.15,4.35,4.35,0,0,0,2.3-.12,6.09,6.09,0,0,0,2.26-1.42,24.16,24.16,0,0,0,2.84-3.47c1.22-1.69,2.8-4,4.12-6.11s2.39-3.95,3.51-6,2.31-4.42,3.09-6,1.17-2.47,1.12-1.77-.52,3-.93,5.16-.73,4.35-.88,6.17a27.78,27.78,0,0,0,0,4.58,11.14,11.14,0,0,0,.64,3.23A8.36,8.36,0,0,0,636,97.7a25.12,25.12,0,0,0,3.24,2.76A10.84,10.84,0,0,0,642.1,102a5.91,5.91,0,0,0,2.47.26,5.25,5.25,0,0,0,2.45-.89,18.44,18.44,0,0,0,3-2.73c1.1-1.18,2.29-2.6,3.94-4.76s3.78-5.08,5.37-7.39,2.65-4,3.85-6.06,2.56-4.36,3.63-6.28,1.86-3.44,2.32-4.34.59-1.17.81-1.08.54.55,1,1.07a10.13,10.13,0,0,0,1.82,1.6,9.1,9.1,0,0,0,2.7,1.21,18.37,18.37,0,0,0,4,.55c1.6.07,3.46,0,6.3,0l9.93-.24c3.3-.06,6.08-.07,7.68-.08s2,0,2.16.35a3,3,0,0,1-.61,2.07,22.3,22.3,0,0,1-3,3.82c-1.46,1.55-3.4,3.4-5.24,5.07s-3.57,3.16-6,5.14-5.51,4.45-5.9,4.72,1.93-1.68,3.43-3a16.88,16.88,0,0,0,2.6-2.56,2.5,2.5,0,0,0,.54-1.52,6.64,6.64,0,0,0-.2-1.74,8.84,8.84,0,0,0-.88-2.18,16,16,0,0,0-1.83-2.67,4.19,4.19,0,0,0-2-1.41,3.69,3.69,0,0,0-2.5.24,17.05,17.05,0,0,0-3.67,2.38c-1.54,1.21-3.46,2.86-5.25,4.48a68.58,68.58,0,0,0-4.92,4.84,48.93,48.93,0,0,0-3.76,4.77,22.55,22.55,0,0,0-2.31,4,8.24,8.24,0,0,0-.68,3.5,10.46,10.46,0,0,0,1,4.05,17.64,17.64,0,0,0,2.89,4.43,7.68,7.68,0,0,0,3.24,2.13,7.21,7.21,0,0,0,3.2.34,13.49,13.49,0,0,0,4.36-1.44,74.9,74.9,0,0,0,8.32-4.79c3.56-2.3,7.92-5.36,11.27-7.94a84.83,84.83,0,0,0,7.68-6.66,65.15,65.15,0,0,0,5-5.49,38.29,38.29,0,0,0,3.14-4.53,9.65,9.65,0,0,0,1.44-3.84,16.34,16.34,0,0,0-.32-5.33,16.61,16.61,0,0,0-2.18-5.44,20.27,20.27,0,0,0-3.23-3.69,9.47,9.47,0,0,1-1.48-1.52c-.19-.33-.16-.62,1-2.22S712,56.68,714,53.91s3.71-5.4,5.22-8a51,51,0,0,0,3.56-7.1,13,13,0,0,0,1.05-5.22,14.48,14.48,0,0,0-1.13-5,29.68,29.68,0,0,0-2.63-5,4.11,4.11,0,0,0-2.51-2.05A8.71,8.71,0,0,0,715.63,21.25Z"/><path class="cls-2" d="M55,8.57A18.13,18.13,0,0,0,49.85,9c-7.25,1.59-15.8,7.55-24.45,17S8,48.55,3.56,61-1,85.14,2.33,92.34s10.19,9.84,15.89,11.12a49.58,49.58,0,0,0,14.71,1c4.46-.26,9.68-.83,10,0s-3.93,3.77-7.75,6.39-7.92,5.36-8.91,5.76,1.13-1.57.56-3.78a6.2,6.2,0,0,0-7-3.89c-3.23.78-6.44,4.8-5.73,8.27s5.31,6.38,9.6,7.1,8.28-.77,12.62-2.79a71.2,71.2,0,0,0,12.91-7.56,33.14,33.14,0,0,0,5.09-4.75c-.08.25-.16.5-.23.74a46.68,46.68,0,0,0-1.75,7.82A6.56,6.56,0,0,0,55,124.57a2.38,2.38,0,0,0,1.52.59,1.53,1.53,0,0,0,1.19-.7,27.29,27.29,0,0,0,2.38-4.2c1.4-2.74,3.67-7.28,5.66-11.45s3.68-8,5-10.9,2.39-5,3-6.53a10.66,10.66,0,0,0,.71-3.29,3.62,3.62,0,0,0-.57-2.41A18.23,18.23,0,0,0,71,82.21a4.32,4.32,0,0,0-2.67-1.42c-.75,0-1.39.43-2.48,2.39s-2.63,5.45-4.13,8.64-3,6.1-4.29,9.09c-.28.65-.56,1.3-.83,2-.54-1.68-2.17-3-4.09-4.12-2.63-1.51-5.8-2.58-11.79-2.77s-14.8.53-20.76.3-9.06-1.39-10-5.66.19-11.67,3.19-20.73A93.24,93.24,0,0,1,28.73,40.47c7.8-9.64,18.59-18.2,24-21.28s5.58-.68,4.69,3.36a144.12,144.12,0,0,1-4.9,15.63A112.72,112.72,0,0,1,44.78,56,110.74,110.74,0,0,1,35.33,69.5c-2.07,2.61-2.07,2.61-1.6,3.5a12.63,12.63,0,0,0,2.92,3.94,8.14,8.14,0,0,0,5.64,1.88c2-.17,3.81-1.27,8.12-9.06A227.89,227.89,0,0,0,65,36.93c3.5-10.58,3.71-17.27.85-22A13.49,13.49,0,0,0,55,8.57Z"/><path class="cls-2" d="M87.07,54.58c-1.15,1.37-3.45,4.12-5.68,6.74S77,66.44,75.23,69a36.6,36.6,0,0,0-3.78,6.63c-.61,1.53-.44,2-.19,2.51a4.13,4.13,0,0,0,1.14,1.37,2.82,2.82,0,0,0,1.79.63c.56-.06,1-.48,1.61-1.17s1.53-1.67,3.11-3.55,3.82-4.65,6.21-7.49,4.9-5.74,6.3-7.41,1.69-2.09,1.83-2.57a2.49,2.49,0,0,0-.18-1.66,6.78,6.78,0,0,0-1.37-1.9A3.88,3.88,0,0,0,90,53.28a4.36,4.36,0,0,0-1.5-.1C88.22,53.2,88.22,53.2,87.07,54.58Z"/></g></g></g></svg>