<svg xmlns="http://www.w3.org/2000/svg" viewBox="0 0 189.96 241.16"><g id="Layer_2" data-name="Layer 2"><g id="Layer_10" data-name="Layer 10"><path d="M172,225.41c-7.26-1-13.54-1.56-19.65-2.88-6.53-1.4-11.36-.06-14.93,5.9-2.21,3.66-5.16,6.87-8.36,11-1.6-3.52-2.94-6.32-4.15-9.18q-5.4-12.75-10.64-25.55c-.4-1-.7-2.7-.18-3.25,5-5.26,9.78-11,18.42-9s17.35,2.69,26.09-1.84Z"/><path d="M76.79,204.42c-4.92,12.05-10,24.07-15.23,36.74-3.87-4.76-7.75-8.92-10.92-13.56-3-4.4-6.94-5.94-11.85-5.48-6.56.61-13.1,1.48-20.24,2.3C22.91,213,27.08,202,31.42,190.53c8.68,3.9,17.25,4.07,26,2,8.6-2,13.67,4.23,19.26,9C77.23,202,77.14,203.57,76.79,204.42Z"/><path d="M185.23,112.26c-5.57-10.45-5.18-20.49,1-30.7s5-16.29-5.67-22.1c-12.56-6.86-20.2-16.31-22.48-30.7-1.55-9.79-7.6-13.22-17.4-12.19a69.68,69.68,0,0,1-12.88.66c-8.82-.73-15-6.61-21.55-11.84-3.76-3-7.85-6.49-12.86-5.06A28.91,28.91,0,0,0,81.57,6.78c-8,7.66-16.76,12-27.52,10h-7c-8.42,0-12.31,2.86-14.79,11.07a51.73,51.73,0,0,0-1.61,6.72c-1.51,9.06-5.89,16-14.11,20.58A85.24,85.24,0,0,0,5.1,63.05C.65,66.59-.85,71.2,1.44,76.67c1.62,3.84,3.27,7.65,5,11.43a21,21,0,0,1,.47,17.49c-1.53,3.7-3.31,7.29-5,10.92-3.76,8.19-2,15.09,5.32,20.28,3.4,2.39,7.07,4.38,10.57,6.63,6.65,4.28,11.13,10.14,12.9,17.93.61,2.71,1.27,5.39,2,8.06,2.61,9.45,7.89,12.59,17.62,11.27,5.74-.78,12-2.13,17.32-.68,5.81,1.58,11.17,5.66,16.13,9.42,9.55,7.26,13.65,8,22.35.2,10.33-9.28,21.37-12.53,35-8.74,8.48,2.38,15.26-2.74,17-11.35.32-1.68.63-3.34.9-5,1.31-7.82,4.89-14.22,11.53-18.75,4.34-3,8.72-5.84,13-8.92,6.19-4.48,7.83-9.87,5.21-17A58.32,58.32,0,0,0,185.23,112.26Zm-34.4-27.42-22.1,21.54a5.32,5.32,0,0,0-1.54,4.74l5.22,30.41a5.36,5.36,0,0,1-7.78,5.65L97.31,132.82a5.33,5.33,0,0,0-5,0L65,147.18a5.36,5.36,0,0,1-7.78-5.65l5.22-30.41a5.34,5.34,0,0,0-1.54-4.74L38.83,84.84a5.36,5.36,0,0,1,3-9.15l30.54-4.44a5.3,5.3,0,0,0,4-2.93L90,40.65a5.36,5.36,0,0,1,9.61,0l13.65,27.67a5.35,5.35,0,0,0,4,2.93l30.53,4.44A5.37,5.37,0,0,1,150.83,84.84Z"/></g></g></svg>