<svg xmlns="http://www.w3.org/2000/svg" viewBox="0 0 299.21 239.7"><defs><style>.cls-1{stroke:#000;stroke-miterlimit:10;stroke-width:3px;}</style></defs><g id="Layer_2" data-name="Layer 2"><g id="home_extension_2" data-name="home extension 2"><path class="cls-1" d="M112.33,2.42,2.53,105a3.23,3.23,0,0,0,2.4,5.57H16.64a3.5,3.5,0,0,0,2.4-.93l88.91-83a9.81,9.81,0,0,1,13.16,0l88.91,83a3.5,3.5,0,0,0,2.4.93h12.11a3.23,3.23,0,0,0,2.4-5.57L117.13,2.42A3.58,3.58,0,0,0,112.33,2.42Z"/><path d="M183.39,99.4,121.86,44.06a10.53,10.53,0,0,0-13.74,0l-61.18,55a8.13,8.13,0,0,0-2.79,6v126c0,4.73,4.29,8.56,9.58,8.56H87.44A5.59,5.59,0,0,0,92.93,234V184.11a5.6,5.6,0,0,1,5.49-5.69h32.34a5.59,5.59,0,0,1,5.49,5.69V234a5.59,5.59,0,0,0,5.49,5.68H176.6c5.29,0,9.57-3.83,9.57-8.56V105.44A8.15,8.15,0,0,0,183.39,99.4ZM112.7,141.93a2.48,2.48,0,0,1-2.41,2.55H94.9a2.48,2.48,0,0,1-2.41-2.55V126a2.48,2.48,0,0,1,2.41-2.55h15.39A2.48,2.48,0,0,1,112.7,126Zm0-24a2.49,2.49,0,0,1-2.41,2.56H94.9a2.49,2.49,0,0,1-2.41-2.56V102a2.48,2.48,0,0,1,2.41-2.55h15.39A2.48,2.48,0,0,1,112.7,102Zm23.22,24a2.48,2.48,0,0,1-2.42,2.55H118.12a2.49,2.49,0,0,1-2.42-2.55V126a2.49,2.49,0,0,1,2.42-2.55H133.5a2.48,2.48,0,0,1,2.42,2.55Zm0-24a2.49,2.49,0,0,1-2.42,2.56H118.12a2.5,2.5,0,0,1-2.42-2.56V102a2.49,2.49,0,0,1,2.42-2.55H133.5a2.48,2.48,0,0,1,2.42,2.55Z"/><path d="M297.06,158l-34.5-35.71c-4.63-4.79-12.54-1.4-12.54,5.37v7.09a7.48,7.48,0,0,1-7.35,7.6H210.35A7.47,7.47,0,0,0,203,150v26.85a7.47,7.47,0,0,0,7.34,7.6h32.32A7.48,7.48,0,0,1,250,192v7.09c0,6.77,7.91,10.16,12.54,5.37l34.5-35.71A7.79,7.79,0,0,0,297.06,158Z"/></g></g></svg>