<svg xmlns="http://www.w3.org/2000/svg" viewBox="0 0 229.63 194.61"><g id="Layer_2" data-name="Layer 2"><g id="loft_conversion" data-name="loft conversion"><path d="M69.73,37.94h27.4a3.82,3.82,0,0,0,3.54-4.06V4.07A3.83,3.83,0,0,0,97.13,0H69.73a3.83,3.83,0,0,0-3.54,4.07V33.88A3.82,3.82,0,0,0,69.73,37.94Z"/><path d="M229.48,190.39l-39-144.3a2.43,2.43,0,0,0-2.12-2H41.24a2.43,2.43,0,0,0-2.12,2l-39,144.3c-.56,2.05.53,4.22,2.11,4.22H58.63c1.25,0,2.26-1.4,2.26-3.12V146.75a3.67,3.67,0,0,1,.85-2.44l1.47-1.63,0-.05,0,0,0,0L111,91.16l2.39-2.58a1.79,1.79,0,0,1,2.76,0l2.41,2.55,47.74,50.44,1.54,1.64a3.65,3.65,0,0,1,.89,2.48v45.82c0,1.72,1,3.12,2.26,3.12h56.37C228.94,194.61,230,192.44,229.48,190.39Z"/><path d="M136.21,171.15H119.15a2.27,2.27,0,0,0-2.1,2.39v18.69a2.26,2.26,0,0,0,2.1,2.38h17.06a2.26,2.26,0,0,0,2.11-2.38V173.54A2.27,2.27,0,0,0,136.21,171.15Z"/><path d="M110.47,171.15H93.41a2.27,2.27,0,0,0-2.1,2.39v18.69a2.26,2.26,0,0,0,2.1,2.38h17.06a2.26,2.26,0,0,0,2.11-2.38V173.54A2.27,2.27,0,0,0,110.47,171.15Z"/><path d="M110.47,143H93.41a2.26,2.26,0,0,0-2.1,2.38V164a2.27,2.27,0,0,0,2.1,2.39h17.06a2.27,2.27,0,0,0,2.11-2.39V145.33A2.26,2.26,0,0,0,110.47,143Z"/><path d="M136.21,143H119.15a2.26,2.26,0,0,0-2.1,2.38V164a2.27,2.27,0,0,0,2.1,2.39h17.06a2.27,2.27,0,0,0,2.11-2.39V145.33A2.26,2.26,0,0,0,136.21,143Z"/></g></g></svg>