<svg xmlns="http://www.w3.org/2000/svg" viewBox="0 0 239.99 250.03"><g id="Layer_2" data-name="Layer 2"><g id="refurbishment"><path d="M142.8,201.17c-3.4,0-6.16,2.42-6.16,5.4l0,38.07c0,3,2.76,5.39,6.16,5.39l58.45,0c3.4,0,6.16-2.41,6.16-5.4V228.8a13.28,13.28,0,0,0-4.73-10l-15.47-13.53a17.39,17.39,0,0,0-11.41-4.13Zm49.9,26.6.26,7.45c0,1.4-1.59,2.49-3.67,2.44l-35.66-.94c-2.08-.06-3.8-1.24-3.86-2.64l-.63-17.93c0-1.4,1.59-2.5,3.67-2.44l20.14.54a13.19,13.19,0,0,1,7,2.12l9.67,6.63A6.3,6.3,0,0,1,192.7,227.77Z"/><path d="M212.6,193.85l-8.66-7.48a2.87,2.87,0,0,1-.41-4.27l6.19-5.28a2.9,2.9,0,0,0,1-2.53v-.15a2.59,2.59,0,0,0,.11-1l0-.25-.09-.86,0-.24a3.49,3.49,0,0,0-1.54-2.43l-7.14-5a2.67,2.67,0,0,1-.37-4.06l6-5a2.76,2.76,0,0,0,1-2.41l0-.23-.09-.84,0-.24a3.43,3.43,0,0,0-1.53-2.4l-7.06-5a2.62,2.62,0,0,1-.38-4l6-4.93a2.64,2.64,0,0,0,1-2.35l0-.24-.08-.83,0-.23a3.2,3.2,0,0,0-1-1.95,3.72,3.72,0,0,0-.76-.72l-7.14-5-.22-.23a2.43,2.43,0,0,1,.26-3.22l4.36-4.24L157.48,75.94a8.72,8.72,0,0,1-4.75,1.37,11.23,11.23,0,0,1-7.42-3l-1.79-1.62a10.91,10.91,0,0,1-1.88-2.21,2.42,2.42,0,0,0-.07.54l.05,120.81a2.86,2.86,0,0,0,.92,2.14l.13.11a4.26,4.26,0,0,0,2.75.94l44,0L200,204.25a1.72,1.72,0,0,0,2.2,0L212.64,195a.78.78,0,0,0,.23-.67A.74.74,0,0,0,212.6,193.85Z"/><path d="M45.42,179.71v14.84c0,2.83,2.76,5.12,6.17,5.12h2.68c10.41,0,18.86,7,18.86,15.64l0,28.87c0,2.83,2.76,5.12,6.17,5.12H97.21c3.41,0,6.17-2.29,6.17-5.12V215.3c0-8.65,8.43-15.66,18.85-15.66h3.31c3.4,0,6.17-2.3,6.16-5.12V179.67c0-2.82-2.77-5.11-6.17-5.11l-73.93,0C48.18,174.59,45.42,176.88,45.42,179.71ZM80,233.22a8.14,8.14,0,1,1,8.12,7.56A7.86,7.86,0,0,1,80,233.22Z"/><path d="M129,60.77c-1.25-.94-2.34-1.91-3.4-2.84-.88-.78-1.71-1.51-2.53-2.15-4.46-3.41-5.3-7.13-5-10.05l-.13,0L98.51,60.45l-44.15,43-9,8.73V158c0,4.44,2.74,8.05,6.12,8.05l74,0c3.38,0,6.11-3.6,6.11-8l0-95.66A13.64,13.64,0,0,1,129,60.77Z"/><path d="M238.07,125.81,170.41,64.54l-7.7,6.86,67.67,61.28c2.21,2,5.44,2.34,7.21.76l1.27-1.14C240.64,130.72,240.28,127.81,238.07,125.81Z"/><path d="M171.38,58.4,155.94,72.19c-2,1.78-5.63,1.4-8.11-.85L146,69.71c-2.49-2.25-2.89-5.51-.9-7.29l15.45-13.79c2-1.78,5.63-1.4,8.11.85l1.79,1.62C173,53.35,173.38,56.62,171.38,58.4Z"/><path d="M94.61,29.48c3.94-4.18,3.73-9.45-.51-13a22.37,22.37,0,0,0-13.43-5.76c-4.41-.22-8.86.38-13.29.65-1.74.1-3.36,0-3.92-1.83s.43-2.85,2.07-3.57A66,66,0,0,1,86.74.19c16.06-1.29,29.11,4,39.19,15.39,1.12,1.26,2.58,2.6,2.91,4.08.95,4.28,3.61,7.31,7.26,9.89,1.5,1.07,2.69,1.92,4.82,1,.87-.37,2.63.24,3.57.89A83,83,0,0,1,151.37,37c3.54,3,3.6,5.48.16,8.66-3.61,3.35-7.31,6.62-11,9.92-2.56,2.28-5.34,2.47-8.14.37-2.06-1.55-3.85-3.38-5.89-4.95s-3.39-3.46-2.27-6.11A2,2,0,0,0,124,43.4c-1.62-3.17-6.17-4.77-9.74-3.3a18,18,0,0,0-4,2.42c-3.45,2.7-6.81,5.49-10.56,8.54L85.35,38.83C88.76,35.4,91.77,32.51,94.61,29.48Z"/><path d="M95,54.25,49.77,98.34,20,127.33a11.35,11.35,0,0,1-15,0l-1.92-1.75a9,9,0,0,1,0-13.6L59.33,62.88,71.2,52.52,82,43.1l11,9.41Z"/></g></g></svg>